<?xml version="1.0" encoding="utf-8"?>
<!-- Generator: Adobe Illustrator 23.0.2, SVG Export Plug-In . SVG Version: 6.00 Build 0)  -->
<svg version="1.1" id="Layer_1" xmlns="http://www.w3.org/2000/svg" xmlns:xlink="http://www.w3.org/1999/xlink" x="0px" y="0px"
	 viewBox="0 0 500 500" style="enable-background:new 0 0 500 500;" xml:space="preserve">
<style type="text/css">
	.st0{fill:#606EB2;}
	.st1{fill:#08BFAD;}
	.st2{fill:#CA3ECE;}
	.st3{fill:#80F9EA;}
	.st4{fill:#2E3192;}
</style>
<path class="st0" d="M466.28,261.77c-0.51-17.03-2.82-33.87-8.86-49.9c-5.64-14.96-12.55-29.57-21.4-42.91
	c-4.49-6.78-9.5-13.12-15.06-19.05c-5.44-5.79-10.88-11.79-17.12-16.74c-12.19-9.66-26.94-16.69-41.91-20.77
	c-16.6-4.52-36.56-5.98-49.59,7.52c-2.53-4.02-6.1-7.27-10.35-9.38c-1.82-0.9-3.8-1.7-5.8-2.09c-1.27-0.25-3.08,0-3.59-1.36
	c-0.52-1.37,0.28-4.49,0.42-5.91c0.27-2.75,0.7-5.49,0.91-8.25c0.43-5.53,0.24-11.08,0-16.61c-0.23-5.46-0.79-10.79-1.95-16.14
	c-1.14-5.28-1.15-10.71-2.41-15.97c-1.14-4.77-3.1-9.3-5.92-13.32c-2.8-4-6.84-6.84-9.48-10.9c-4.79-7.38-11.8-13.49-20.79-14.76
	c-9.78-1.38-19.24,3.7-25.04,11.4c-1.25,1.66-2.02,3.51-3.14,5.23c-1.17,1.79-3.23,3-4.69,4.56c-3.28,3.49-5.89,7.57-7.7,12.01
	c-2,4.9-2.66,9.93-3.2,15.16c-0.54,5.15-1.8,10.17-2.54,15.29c-1.66,11.56-0.28,24.43,1.62,35.89c0.36,2.16,0.32,2.79-1.95,2.96
	c-2.48,0.18-4.8,0.59-7.11,1.59c-4.84,2.09-8.9,5.99-11.59,10.48c-19.48-19.92-52.96-8.64-74.01,2.38
	c-23.33,12.21-41.57,32.97-54.9,55.4c-13.96,23.5-22.83,49.02-24.94,76.34c-0.76,9.8-1.45,21.03,3.98,29.73
	c6.26,10.03,18.25,11.69,28.58,7.42c6.05-2.5,11.28-6.63,15.52-11.59c2.27-2.66,4.27-5.53,6.03-8.55c1.68-2.9,2.61-6.1,5.25-8.25
	c5.61-4.59,11.05-9.48,15.54-15.2c2.17-2.77,4.1-5.74,5.58-8.93c0.76-1.64,1.09-3.49,1.87-5.1c0.72-1.48,2.11-2.26,3.31-3.33
	c-2.5,12.92-4.82,26.35-3.45,39.52c0.67,6.42,2.04,12.75,3.88,18.92c0.91,3.06,1.88,6.14,3.15,9.07c1.14,2.62,2.24,4.39,2.1,7.33
	c-0.62,13.26-0.39,26.04,3.02,38.97c3.23,12.22,8.05,24.18,14.67,34.97c0.69,1.13,1.59,2.18,2.2,3.36c0.83,1.58,0.45,1.85-0.34,3.35
	c-1.43,2.75-2.59,5.63-3.63,8.54c-2.23,6.25-4.13,12.65-5.88,19.04c-3.4,12.42-5.81,25.38-4.42,38.29
	c1.22,11.33,5.14,23.59,12.74,32.29c6.95,7.96,18.73,12.85,29.26,10.72c6.66-1.34,13-5.03,18.05-9.5c0.78-0.69,1.85-2.28,2.79-2.66
	c1.1-0.44,2.66-0.08,3.82-0.18c3.06-0.26,6.05-1.21,8.71-2.75c5.79-3.34,8.43-8.43,10.23-14.61c0.72-2.49,3.32-4.1,4.77-6.31
	c1.81-2.77,2.98-5.96,3.36-9.26c2.25,1.37,4.6,2.59,6.7,4.18c2.2,1.66,3.88,3.84,5.86,5.74c3.37,3.26,7.56,5.61,12.37,5.34
	c4.96-0.28,9.19-2.93,12.69-6.29c3.92-3.76,8.7-5.72,13.29-8.48c0.35,2.67,1.24,5.28,2.59,7.61c0.74,1.28,1.62,2.56,2.64,3.63
	c0.9,0.95,2.1,1.67,2.71,2.87c0.54,1.06,0.51,2.37,0.81,3.5c0.4,1.5,1.07,2.95,1.84,4.29c1.31,2.27,3.05,4.28,5.1,5.92
	c1.94,1.55,4.13,2.76,6.49,3.56c1.21,0.41,2.45,0.7,3.71,0.88c1.29,0.18,2.87-0.15,4.1,0.16c1.16,0.3,1.69,1.36,2.48,2.19
	c0.99,1.04,2.09,1.99,3.21,2.89c2.51,2,5.31,3.63,8.28,4.84c10.26,4.18,21.59,3.33,30.74-3.03c9.15-6.37,14.59-16.47,16.9-27.2
	c2.63-12.19,2.15-25.1,0.08-37.34c-2.14-12.64-5.56-25.73-10.58-37.55c-0.4-0.94-1.35-2.23-1.44-3.25c-0.1-1.22,0.82-2.24,1.39-3.27
	c1.57-2.81,3.07-5.67,4.47-8.57c2.85-5.89,5.31-11.98,7.36-18.2c4.02-12.18,6.95-25.41,6.73-38.3c-0.06-3.35-0.55-6.62-0.79-9.94
	c-0.23-3.09,1.9-5.98,3.02-8.79c2.69-6.76,4.46-13.85,5.75-21c2.69-14.89,2.17-29.24-1.21-43.99c1.69,1.47,1.86,3.14,2.65,5.15
	c0.9,2.29,2.12,4.47,3.44,6.54c2.57,4.01,5.73,7.61,9.1,10.98c1.72,1.72,3.5,3.37,5.33,4.97c1.73,1.51,3.97,2.72,5.47,4.45
	c1.25,1.44,1.77,3.39,2.62,5.06c0.95,1.87,2.08,3.68,3.25,5.43c8.84,13.15,28.44,26.61,43.4,14.42
	C465.83,281.84,466.57,271.87,466.28,261.77z"/>
<path class="st1" d="M462.05,261.98c-0.55-16.93-2.65-33.9-8.98-49.74c-6.13-15.35-13.07-30.14-22.55-43.75
	c-4.76-6.83-10.2-12.97-15.86-19.05c-5.24-5.64-10.69-11.01-16.94-15.53c-12.48-9.04-27.02-15.16-42-18.63
	c-15.5-3.59-34.41-2.67-43.74,12.32c-1.71-1.45-2.27-3.81-3.43-5.65c-1.29-2.03-2.99-3.83-4.89-5.3c-3.98-3.08-8-3.81-12.78-4.45
	c-2.19-0.29-2.27-2.24-2.37-4.33c-0.15-2.96,0.15-5.97,0.49-8.9c0.64-5.45,1.15-10.89,0.95-16.38c-0.21-5.77-0.3-11.63-1.28-17.33
	c-0.89-5.16-1.69-10.22-2.38-15.41c-1.21-9.08-5.49-17.49-12.51-23.43c-1.81-1.53-2.72-3.48-4.05-5.42
	c-1.44-2.09-3.07-4.03-4.97-5.72c-3.38-3.01-7.56-5.29-12.1-5.86c-8.8-1.11-17.07,4.2-21.85,11.29c-1.21,1.81-1.93,3.9-3.55,5.38
	c-1.91,1.75-3.79,3.43-5.41,5.47c-3.07,3.86-5.26,8.36-6.52,13.12c-1.33,5.06-1.29,10.34-2.23,15.47
	c-0.98,5.35-2.21,10.65-2.22,16.12c-0.02,6.41,0.5,12.9,1.14,19.28c0.33,3.25,0.86,6.48,1.07,9.74c0.13,2.02,0.04,4.4-1.66,5.83
	c-1.77,1.48-5.19,0.8-7.37,1.32c-2.63,0.62-5.03,1.92-7.12,3.62c-2.05,1.67-3.8,3.73-5.16,5.99c-1.08,1.81-1.51,4.03-3.07,5.5
	c-13.79-21.93-45.61-13.96-64.82-5.34c-12.23,5.49-23.42,12.53-32.89,22.09c-9.33,9.42-17.96,19.29-25.06,30.51
	c-7.27,11.5-13.14,23.52-18.03,36.2c-4.95,12.86-7.65,26.17-9.05,39.86c-1.15,11.28-3.17,27.64,7.4,35.35
	c9.27,6.75,21.79,1.17,29.24-5.72c5.13-4.74,8.81-10.56,11.75-16.84c1.44-3.08,4.14-4.54,6.65-6.69c2.81-2.41,5.52-4.94,8.06-7.64
	c4.8-5.1,8.27-10.45,10.44-17.1c0.99-3.03,4.45-5.01,6.74-7.12c2.79-2.57,5.5-5.24,8.05-8.05c-3.2,13.34-6.22,27.25-6.78,40.99
	c-0.54,13.27,2.33,26.96,7.52,39.16c1.28,3,2.24,4.8,1.9,8.12c-0.36,3.48-0.48,6.99-0.48,10.49c-0.01,6.65,0.44,13.31,1.67,19.86
	c2.38,12.69,7.07,25.1,13.26,36.41c1.48,2.7,3.04,5.37,4.74,7.94c0.47,0.71,2.1,2.4,2.17,3.31c0.06,0.76-0.91,1.88-1.28,2.54
	c-3.21,5.75-5.17,12.01-7.13,18.26c-3.94,12.59-7.64,25.89-7.77,39.18c-0.12,11.97,3.06,24.75,9.93,34.67
	c6.36,9.18,18.73,15.2,29.79,11.74c6.13-1.92,12.19-5.66,16.39-10.55c1.07-1.24,0.79-1.35,2.27-1.38c1.5-0.03,2.94,0.28,4.47,0.11
	c3.38-0.37,6.63-1.77,9.2-4c2.11-1.83,3.75-4.19,4.73-6.81c0.54-1.44,0.7-2.82,1-4.3c0.29-1.43,0.64-1.7,1.75-2.67
	c5.47-4.8,6.99-11.29,5.74-18.3c5.19,2.74,10.93,5.59,15.36,9.49c4.33,3.81,7.47,9.21,13.98,8.91c6.13-0.28,9.2-4.96,13.74-8.25
	c2.44-1.77,5.12-3,7.77-4.39c3.13-1.64,6.16-3.49,9.3-5.12c-0.92,5.56-0.06,11.37,3.8,15.69c1.89,2.12,3.44,2.82,3.96,5.74
	c0.54,3.02,1.65,5.71,3.64,8.08c3.66,4.38,9.1,6.46,14.7,5.82c2.32-0.26,2.48,1.11,3.95,2.73c2.07,2.26,4.48,4.25,7.13,5.8
	c10.72,6.24,23.87,5.43,33.21-2.83c8.81-7.8,12.56-19.17,13.66-30.59c1.26-13.04-0.42-26.16-3.55-38.83
	c-1.58-6.41-3.42-12.79-5.55-19.04c-0.99-2.92-2.09-5.81-3.37-8.62c-0.36-0.79-1.48-2.28-1.49-3.24c-0.01-0.85,1.04-2.22,1.47-2.93
	c6.73-11.12,11.83-23.38,15.12-35.95c1.68-6.42,2.89-13.02,3.62-19.61c0.76-6.91-0.02-13.42-0.46-20.28
	c-0.21-3.16,2.38-6.59,3.53-9.49c1.29-3.25,2.38-6.57,3.3-9.95c1.89-6.92,3.15-14.07,3.72-21.22c1.24-15.45-2.16-30.56-6.35-45.32
	c3.44,3.62,7.05,7.13,10.87,10.34c3.25,2.74,3.6,7.39,5.78,11.06c4.92,8.28,12.16,14.47,19.5,20.51c1.76,1.45,2.34,3.26,3.34,5.27
	c1.11,2.2,2.35,4.33,3.73,6.37c2.63,3.9,5.75,7.53,9.46,10.45c6.24,4.91,15.58,9.01,23.42,5.58
	C461.23,283.34,462.38,272.25,462.05,261.98z"/>
<path class="st2" d="M458.37,262.13c-0.52-15.78-2.44-31.71-7.99-46.58c-5.69-15.23-12.71-29.96-21.86-43.43
	c-4.41-6.49-9.42-12.41-14.75-18.16c-5.23-5.64-10.5-11.2-16.65-15.86c-11.73-8.88-25.46-14.93-39.68-18.54
	c-8.55-2.17-17.76-3.71-26.42-1.23c-8.13,2.33-14.41,7.4-17.92,15.12c-1.84-1.57-4.41-3.08-5.54-5.23c-1.13-2.14-1.95-4.23-3.56-6.1
	c-2.98-3.46-7.43-5.88-12.01-6.22c-2.09-0.15-3.84,1.02-5.16-0.89c-1.32-1.91-1.86-4.48-2.02-6.74c-0.41-5.51,0.77-11.08,1.24-16.55
	c0.95-11.15-0.56-22.07-2.53-32.99c-0.97-5.38-0.86-10.97-2.75-16.16c-1.64-4.52-4.38-8.61-7.86-11.93
	c-1.83-1.74-3.53-2.78-4.75-5.04c-1.17-2.18-2.66-4.25-4.37-6.05c-3.12-3.29-7.28-5.98-11.88-6.45c-4.78-0.49-9.54,1.33-13.2,4.33
	c-1.68,1.37-3.15,2.98-4.39,4.75c-1.45,2.07-2.12,4.7-4.06,6.36c-8,6.87-11.73,15.05-12.62,25.53c-0.46,5.46-1.98,10.71-2.57,16.15
	c-0.6,5.5-0.31,11.03,0.04,16.54c0.38,5.85,1.09,11.63,1.69,17.45c0.44,4.25-1.18,11.25-6.5,11.4c-5.63,0.16-10.01,1.59-13.7,6.08
	c-1.59,1.94-2.23,4-3.31,6.18c-1.18,2.38-3.63,3.9-5.67,5.49c-9.07-19.54-32.44-17.94-49.86-12.46
	c-10.46,3.29-20.73,8.13-29.87,14.18c-6.21,4.11-11.67,9-16.74,14.42c-5.21,5.56-10.49,11.03-15.08,17.13
	c-18.04,23.95-30.48,53.27-33.46,83.16c-1.06,10.63-4.08,29.94,8.8,34.89c5.62,2.16,12.05-0.32,16.85-3.39
	c5.03-3.21,9.08-7.8,12.23-12.83c1.77-2.82,2.77-6.57,4.75-9.16c2.19-2.87,6.18-5.11,8.87-7.56c5.5-5.02,11.55-11.02,14.06-18.22
	c0.48-1.39,0.4-3.45,1.17-4.7c0.75-1.23,2.38-2.18,3.45-3.12c2.95-2.58,5.82-5.24,8.6-7.99c2.75-2.72,5.44-5.52,7.65-8.71
	c1.04-1.5,1.8-3.08,2.63-4.69c0.98-1.91,2.57-3.11,4.39-4.22c-4.27,13.38-7.69,26.81-9.83,40.71c-1.03,6.72-2.19,13.49-2.2,20.31
	c-0.01,6.84,1.06,13.61,2.68,20.24c0.82,3.34,1.76,6.66,2.91,9.9c1.13,3.19,2.9,6.15,4.04,9.3c0.91,2.54-0.31,6.52-0.43,9.23
	c-0.17,3.69-0.18,7.4-0.06,11.09c0.44,13.54,4.11,26.74,9.41,39.16c2.66,6.24,5.87,12.25,9.56,17.94c0.86,1.34,3.61,3.96,3.43,5.54
	c-0.1,0.88-1.34,2.29-1.77,3.04c-1.03,1.8-1.99,3.65-2.84,5.55c-2.71,6.08-4.48,12.57-6.3,18.96c-1.87,6.56-3.56,13.18-4.69,19.91
	c-2.3,13.6-1.1,27.24,5.04,39.72c5.11,10.39,16.43,19.13,28.61,15.42c6.29-1.91,12.17-5.88,16.05-11.19
	c0.74-1.02,0.8-1.35,1.69-1.52c1.07-0.2,2.84,0.77,4.04,0.83c3.35,0.17,6.7-1,9.24-3.2c2.45-2.12,4.06-5.14,4.36-8.37
	c0.18-1.91,0.1-2.77,1.55-4.14c1.1-1.03,2.29-1.92,3.28-3.07c5.19-6.03,2.62-13.67,1.14-20.61c6.6,3.37,13.18,6.78,19.43,10.79
	c3,1.93,5.35,4.34,7.8,6.9c2.13,2.22,4.38,4.32,7.68,3.99c3.22-0.33,5.54-2.45,7.74-4.6c2.39-2.34,5.07-4.24,8.03-5.82
	c6.67-3.56,13.37-7.09,20.02-10.7c-1.33,5.89-3.52,12.53-0.14,18.15c0.79,1.31,1.81,2.45,2.9,3.51c0.8,0.78,2.3,1.64,2.87,2.63
	c0.5,0.87,0.35,1.95,0.45,2.91c0.18,1.59,0.61,3.11,1.35,4.53c2.44,4.69,7.64,7.58,12.91,7.05c0.95-0.09,2.45-0.83,3.37-0.74
	c1.06,0.11,1.28,1.25,1.91,2.12c1.85,2.58,4.2,4.85,6.82,6.64c10.76,7.35,24.37,5.46,32.93-4.16c8.01-9,10.09-21.35,10.18-33.02
	c0.1-13.66-2.58-26.92-6.58-39.94c-1.95-6.33-3.87-12.86-6.84-18.8c-0.37-0.75-1.44-1.91-1.59-2.74c-0.18-1.03,0.55-1.68,1.1-2.51
	c1.82-2.74,3.35-5.74,4.86-8.65c6.26-12.02,11.01-25.08,13.54-38.41c1.33-6.98,1.98-14.06,1.63-21.16
	c-0.09-1.82-0.24-3.63-0.43-5.44c-0.16-1.56-0.77-3.62-0.51-5.18c0.24-1.47,1.34-2.87,1.97-4.17c0.75-1.55,1.42-3.15,2.04-4.75
	c5.63-14.53,7.97-31.06,6.35-46.55c-1.67-15.9-7-31.51-12.04-46.59c4.08,2.5,5.27,7.15,8.16,10.82c3.43,4.36,7.42,8.24,11.51,11.97
	c1.86,1.7,4.16,3.22,5.83,5.08c1.48,1.66,1.41,4.2,2.28,6.28c2.03,4.88,5.44,9.09,9.05,12.88c3.72,3.9,7.81,7.3,12,10.66
	c1.82,1.46,2.38,3.14,3.32,5.2c1.09,2.37,2.42,4.64,3.87,6.8c5.05,7.51,12.75,14.59,22.14,15.57c5.09,0.53,9.82-2.08,12.66-6.24
	C458.77,274.38,458.55,267.66,458.37,262.13z M63.65,257.16c-0.1,2.89-0.58,5.77-1.43,8.54c-0.62,1.99-1.35,4.8-3.07,6.14
	c-5.25,4.13-5.35-5.66-5.21-8.35c0.31-6.04,1.51-12.11,2.37-18.09c0.86-5.96,1.43-12.03,2.93-17.87
	C61.36,237.45,64,246.89,63.65,257.16z M76.2,239.7c-0.53,4.23-1.45,8.42-2.74,12.48c-0.5-10.06-3.32-19.77-5.47-29.55
	c-1.06-4.83-1.46-9.51-1.19-14.46c0.13-2.44,0.3-4.51,1.35-6.73c1.13-2.38,2.26-4.76,3.45-7.11c0.07,7.79,1.87,15.42,3.04,23.09
	C75.72,224.54,77.11,232.5,76.2,239.7z M244.71,361.29c-0.8,1.75-1.25,3.72-1.15,5.65c0.12,2.19,0.67,3.06-0.58,5.03
	c-0.8-4.19-1.61-8.37-2.41-12.56C241.94,360.04,243.34,360.64,244.71,361.29z M225.73,356.31c0.93-1.86,1.46-3.94,1.49-6.02
	c1.12,1.16,2.53,1.56,2.21,3.25c-0.42,2.26-2.39,5.02-3.37,7.12c-2.48,5.35-4.95,10.71-7.44,16.06c-0.95-4.53-1.89-9.07-2.84-13.6
	C220.06,362.7,223.81,360.16,225.73,356.31z M201.53,362.24c-0.7-4.1-1.65-8.05,0.73-11.77c1.9-2.96,5.07-5.11,8.66-5.17
	c-6.69,2.6-8.32,11.21-2.54,15.79c-2.06,1.48-4.13,2.96-6.19,4.44C201.94,364.44,201.72,363.34,201.53,362.24z M203.26,228.93
	c-0.25-2.73-0.63-5.44-1.1-8.14c1.55,0.85,3.09,1.75,4.66,2.56c0.91,0.47,2.09,0.81,2.72,1.64c0.66,0.86,0.54,2.1,0.73,3.12
	c0.26,1.4,0.73,2.75,1.32,4.04c0.31,0.7,0.94,1.34,0.66,2.08c-0.29,0.75-1.89,1.67-2.49,2.22c-2.52,2.3-5.06,4.59-7.57,6.89
	C203.33,238.64,203.71,233.75,203.26,228.93z M213.01,206.08c0.66,0.02,1.31-0.04,1.96-0.16c-2.83,4.22-4.77,9.05-5.29,14.12
	c-1.32-0.72-9.05-3.81-8.74-5.75c0.2-1.25,4.39-3.15,5.43-3.84C208.58,208.99,210.79,207.54,213.01,206.08z M214.65,237.77
	c0.8,1.17,2.3,2.44,2.92,3.7c0.64,1.31-0.22,2.6-0.62,3.95c-1.2,4.08-1.84,8.25-1.57,12.51c-2.83-4.22-5.67-9.46-10.97-10.85
	C207.83,243.97,211.24,240.87,214.65,237.77z M205.4,195.96c-0.3,2.92,0.58,6.13,2.76,8.19c-2.78,1.83-5.55,3.66-8.33,5.48
	c-0.4-1.73-0.79-3.47-1.18-5.2c-0.16-0.7-1.1-2.96-0.74-3.69c0.34-0.68,2.43-1.13,3.11-1.5
	C202.63,198.37,204.12,197.28,205.4,195.96z M213.8,379.94c-4.85-0.84-8.38-3.89-9.99-8.52c-0.66-1.88,0.16-2.15,1.81-3.29
	c1.99-1.38,4.02-2.7,5.99-4.11c1.14,5.44,2.27,10.87,3.41,16.31C214.63,380.14,214.22,380.01,213.8,379.94z M237.7,379.22
	c-3.19-3.61-8.5-6.1-13.33-4.68c2.98-6.42,5.95-12.84,8.93-19.25c2.16,1.45,2.53,1.88,3.01,4.54c0.48,2.65,1.02,5.29,1.52,7.93
	c1.02,5.3,2.03,10.6,3.05,15.91C239.97,382.08,238.9,380.59,237.7,379.22z M294.89,357.57c2.24-4.72,0.1-9.95-4.58-12.1
	c3.16,0.04,6.07,2.15,8.04,4.47c2.28,2.69,1.64,5.89,1.24,9.16C298.02,358.58,296.45,358.07,294.89,357.57z M285.18,376.84
	c-1.85-5.1-3.71-10.19-5.56-15.29c2.45,1.56,5.48,1.91,8.29,1.31C286.99,367.52,286.09,372.18,285.18,376.84z M299.21,241.99
	c0.38,1.64,0.85,3.27,1.4,4.86c-7.67-1.06-11.9,5.96-15.63,11.42c0.13-2.39,0.09-4.87-0.29-7.24c-0.33-2.05-0.68-2.06,1.28-3.02
	c4.37-2.15,8.77-4.24,13.15-6.37C299.15,241.75,299.18,241.87,299.21,241.99z M297.4,232.13c-2.04-2.65-5.41-5.47-5.35-8.96
	c0.03-1.86,0-2.58,1.54-3.64c1.72-1.18,3.68-2.16,5.46-3.25C297.75,221.45,297.3,226.8,297.4,232.13z M290.24,206.38
	c3.98-1.31,6.4-5.34,6.1-9.46c0.87,0.77,1.82,1.44,2.81,2.02c0.79,0.46,2.3,0.76,2.92,1.4c1.16,1.2-0.07,4.3-0.4,5.78
	c-0.45,2.02-0.43,3.76-2.21,4.9c-2.55,1.64-5.18,3.17-7.76,4.75c-0.77-3.15-2.12-6.15-3.73-8.95
	C288.73,206.76,289.51,206.62,290.24,206.38z M283.67,239.88c2.66-2.97,5.25-6.07,6.77-9.8c2.05,2.68,4.11,5.35,6.16,8.03
	c-4.44,2.16-8.88,4.33-13.32,6.49C282.49,242.04,281.89,241.86,283.67,239.88z M258.96,386.22c-0.43,1.1-0.83,2.22-1.21,3.34
	c0.1-0.89,0.06-1.8-0.13-2.67c-0.15-0.69-0.85-1.66-0.82-2.33c0.06-1.18,1.59-3,2.02-4.11c0.68-1.77,0.87-3.58,0.39-5.42
	c-0.39-1.52-1.65-2.7-2.05-4.11c-0.34-1.2,0.48-2.42,0.65-3.64c0.14-0.98,0.16-2.05,0.04-3.04c0.02,0.17-0.43-1.61-0.38-1.74
	c0.31-0.83,1.76-1.06,2.64-1.44c1.91-0.82,3.72-1.82,5.44-3c-0.89,5.12-1.78,10.24-2.67,15.36c-0.42,2.43-0.62,5.07-1.35,7.42
	C260.94,382.76,259.67,384.36,258.96,386.22z M276.33,373.79c-3.44-0.79-6.77,0.4-9.59,2.36c0.76-4.4,1.53-8.8,2.29-13.21
	c0.57-3.27,0.43-7.79,2.81-10.28c2.8,7.69,5.6,15.39,8.4,23.08C279.12,374.8,277.75,374.12,276.33,373.79z M291.5,378.27
	c-0.78,0.4-1.61,0.69-2.43,0.97c1.16-5.98,2.33-11.95,3.49-17.93c1.21,0.39,5.32,0.98,6.07,1.95c0.69,0.89-0.43,3.77-0.71,4.88
	C296.92,372.05,295.3,376.29,291.5,378.27z M432.8,228.32c-2.65,7.94-4.47,16.18-4.8,24.56c-1.61-4.4-3.15-8.9-3.51-13.6
	c-0.35-4.58,0.2-9.2,0.67-13.75c0.98-9.57,3.47-18.98,3.96-28.59c2.23,4.77,5.44,9.9,6.02,15.21
	C435.73,217.6,434.52,223.17,432.8,228.32z M447.08,271.18c-0.02,1.66-1.16,3.26-3,2.97c-1.69-0.26-2.66-2.28-3.36-3.62
	c-1.74-3.36-2.32-7.23-2.57-10.96c-0.62-9.27,1.68-18.31,4.35-27.11C444.77,245.11,447.22,258.29,447.08,271.18z"/>
<path class="st3" d="M455.51,262.21c-0.52-15.84-2.46-31.86-8.2-46.74c-5.79-15.01-12.64-29.52-21.81-42.78
	c-4.29-6.2-9.15-11.85-14.28-17.37c-5.27-5.68-10.6-11.22-16.87-15.83c-11.73-8.63-25.38-14.45-39.52-17.77
	c-8.24-1.93-17.02-3.12-25.18-0.21c-7.77,2.77-13.28,8.45-15.52,16.44c-3.38-2.88-7.94-5.46-9.59-9.63
	c-1.62-4.1-5.03-7.41-9.18-8.91c-2.57-0.93-4.56-0.71-7.17-0.47c-2.42,0.22-3.65-2.11-4.61-4.16c-2.19-4.7-1.8-9.99-1.27-15
	c1.17-11.28,1.79-22.85-0.23-34.09c-0.51-2.82-1.28-5.59-1.65-8.44c-0.39-2.97-0.44-5.97-1.01-8.91c-0.93-4.83-2.97-9.39-6.12-13.18
	c-1.41-1.7-3.02-3.1-4.69-4.52c-1.91-1.62-2.67-3.63-4.04-5.68c-2.55-3.82-6.31-7.37-10.81-8.66c-4.87-1.4-9.94,0.22-13.72,3.42
	c-1.78,1.51-3.33,3.33-4.53,5.33c-1.09,1.83-1.53,3.81-3.22,5.21c-3.83,3.17-7.03,6.55-9.13,11.14c-2.23,4.87-2.68,9.92-3.21,15.17
	c-0.58,5.71-2.35,11.2-2.65,16.94c-0.29,5.6,0.19,11.24,0.6,16.82c0.24,3.25,0.52,6.5,0.86,9.74c0.31,2.93,0.97,5.99,0.53,8.93
	c-0.39,2.63-1.79,4.78-3.64,6.63c-2.21,2.22-3.61,2.62-6.69,2.69c-5.39,0.11-9.77,3.03-12.27,7.82c-1.25,2.39-1.62,4.16-3.68,6.07
	c-2.16,2-4.52,3.78-6.62,5.85c-8.4-28.5-45.79-17.23-64.62-7.84C98.25,142,80.22,162.51,67.13,185.04
	c-13.74,23.65-22.51,50.22-22.73,77.76c-0.04,5.18-0.13,11.14,2.95,15.58c3.45,4.96,9.1,5.17,14.34,3.21
	c5.72-2.15,10.33-6.14,13.98-10.97c1.79-2.36,3.34-4.89,4.69-7.52c1.41-2.76,2.13-5.22,4.59-7.2c5.83-4.71,11.59-9.57,16.14-15.57
	c1.99-2.63,3.84-5.56,4.8-8.74c0.4-1.3,0.19-3.08,0.82-4.23c0.58-1.06,2.61-2.22,3.5-2.98c5.64-4.88,11.27-10.04,15.82-15.97
	c1.85-2.41,2.71-5.61,4.84-7.73c2.27-2.26,5.59-4.16,8.76-4.67c-1.11,5.63-3.31,10.96-4.81,16.49c-1.59,5.87-2.96,11.81-4.16,17.77
	c-2.29,11.41-4.65,23.57-3.97,35.25c0.65,11.24,3.58,23.03,8.78,33.06c0.5,0.96,1.09,1.72,1.16,2.79c0.06,0.94-0.36,2.21-0.46,3.16
	c-0.32,3.03-0.47,6.07-0.53,9.11c-0.1,5.89,0.13,11.81,1.02,17.64c1.74,11.28,5.49,22.39,10.46,32.65
	c2.45,5.06,5.26,9.97,8.43,14.62c0.71,1.04,3.26,3.39,3.21,4.68c-0.02,0.64-1.13,1.92-1.42,2.4c-0.79,1.28-1.54,2.59-2.24,3.93
	c-5.1,9.74-7.77,20.64-10.39,31.26c-2.8,11.32-4.64,22.91-2.28,34.48c2.21,10.83,6.96,22.75,17.8,27.3
	c5.79,2.43,11.15,2.04,16.73-0.72c5.34-2.64,10.01-6.76,12.63-12.16c3.61,2.27,8.41,2.55,12.04,0.18c1.94-1.27,3.36-3.16,4.08-5.36
	c0.68-2.07,0.18-4.57,1.42-6.42c1.21-1.78,3.36-2.88,4.73-4.56c1.58-1.93,2.35-4.35,2.35-6.84c0-5.62-2.73-10.88-2.78-16.51
	c7.28,3.67,14.69,7.24,21.6,11.57c3.27,2.05,6.42,4.35,9.1,7.14c1.85,1.93,3.69,4.89,6.65,5.03c3.77,0.18,6.38-3.74,8.97-5.87
	c3.04-2.49,6.43-4.22,9.89-6.02c7.27-3.76,14.34-7.92,21.61-11.69c-0.53,5.33-2.75,10.42-3.02,15.8c-0.14,2.75,0.6,5.28,2.33,7.43
	c1.42,1.76,3.8,2.97,4.88,4.95c0.92,1.68,0.55,3.81,1.09,5.62c0.67,2.23,2.08,4.24,4,5.57c3.63,2.53,8.61,2.36,12.28,0.01
	c3.47,8.38,12.3,14.23,21.32,14.44c9.36,0.23,16.62-6.02,20.76-13.97c4.81-9.23,5.8-20.25,5.4-30.49
	c-0.47-12.08-3.25-24.05-6.87-35.54c-1.75-5.57-3.58-11.26-6.17-16.5c-0.56-1.13-1.73-2.55-2.07-3.74
	c-0.33-1.18-0.06-1.41,0.61-2.53c1.52-2.53,3-5.07,4.41-7.66c5.59-10.26,9.92-21.17,12.77-32.51c2.9-11.56,4.29-23.11,2.9-34.99
	c-0.35-2.95-0.66-4.37,0.71-7.01c1.38-2.66,2.58-5.41,3.61-8.23c1.96-5.38,3.32-10.96,4.36-16.58c2.48-13.36,2.23-26.04-0.74-39.28
	c-1.48-6.57-3.03-13.13-4.91-19.6c-1.88-6.48-4.95-12.84-6.13-19.5c2.42,0.64,4.6,1.48,6.67,2.91c2.25,1.56,2.81,2.94,3.97,5.32
	c2.22,4.55,5.96,8.31,9.49,11.86c1.91,1.92,3.88,3.79,5.9,5.61c1.88,1.69,4.65,3.31,6.16,5.3c1.08,1.42,0.87,3.85,1.53,5.62
	c0.92,2.46,2.33,4.75,3.87,6.87c3.18,4.4,7.1,8.23,11.17,11.8c1.95,1.71,3.98,3.29,6.01,4.9c2.05,1.63,2.59,3.71,3.69,6.01
	c3.76,7.86,9.72,15.4,17.93,18.86c5.51,2.33,10.98,2.51,15.13-2.33C456.06,274.41,455.7,267.64,455.51,262.21z M445.54,273.84
	c-5.53,3.07-7.36-11.93-7.56-14.37c-0.73-9.13,1.71-18.36,4.33-27.02c1.32,7.36,2.38,14.77,3.39,22.19
	c0.49,3.59,0.88,7.2,1.07,10.82C446.88,267.62,447.93,272.51,445.54,273.84z M342.56,357.87c1.02-0.41,2-0.92,2.92-1.53
	c-1.04,2.38-2.13,4.73-3.25,7.07C342.5,361.57,342.6,359.72,342.56,357.87z M307.6,458.26c-0.39,0.93-1.09,1.69-1.87,2.31
	c-0.16-3.02,1.04-6.43,1.8-9.33c0.92-3.54,2.12-7.02,3.72-10.32c2.88-5.93,6.88-11.21,11.11-16.24c-1.93,5.59-5.3,10.53-7.75,15.88
	C311.97,446.34,310.07,452.41,307.6,458.26z M285.18,421.2c-2.6,2.28-6.02,3.64-9.13,5.05c-3.67,1.66-7.41,3.14-11.15,4.63
	c-3.88,1.55-7.79,3.02-11.64,4.63c-1.35,0.57-2.62,1.41-4.14,1.12c-1.82-0.34-3.69-1.43-5.42-2.1c-7.1-2.75-14.56-5.28-21.27-8.92
	c-6.69-3.64-12.32-9.02-17.5-14.53c7.25,4.84,15.29,8.51,23.14,12.27c4.09,1.96,8.22,3.83,12.39,5.62c3.06,1.32,7.2,4.14,10.61,3.87
	c1.98-0.15,4.06-1.44,5.85-2.22c1.91-0.82,3.82-1.64,5.72-2.48c3.96-1.74,7.9-3.54,11.76-5.49c7.62-3.83,15.43-7.51,22.43-12.41
	C293.19,414.14,289.2,417.69,285.18,421.2z M192.82,455.95c-3.21-9.84-8.4-18.84-12.58-28.27c4.09,4.58,7.81,8.56,10.11,14.37
	c2.23,5.63,4.45,12.27,4.5,18.37C194.1,458.96,193.33,457.51,192.82,455.95z M59.08,271.88c-1.46,0.44-2.83,1.49-4.12,0.13
	c-1.02-1.08-1.05-3.15-1.17-4.55c-0.37-4.37,0.4-8.66,1.03-12.97c1.32-8.95,1.99-18.21,4.22-26.99c1.76,8.25,4.1,16.37,4.43,24.85
	c0.16,4.15-0.03,8.32-1.14,12.34C61.94,266.11,60.84,271.35,59.08,271.88z M66.91,204.02c0.08-1.43,1.19-2.88,1.81-4.14
	c0.9-1.85,1.78-3.72,2.7-5.56c0.09,9.98,2.82,19.68,3.89,29.56c0.53,4.9,1.01,10.01,0.77,14.95c-0.21,4.55-1.43,9.02-2.81,13.34
	c-0.41-8.33-2.26-16.49-4.29-24.55c-0.96-3.82-2.06-7.65-2.44-11.59C66.17,212.02,66.68,208.01,66.91,204.02z M85.96,218.83
	c0.45-2.36,4.96-5.3,6.67-6.7c-0.2,2.79-0.33,5.29-1.94,7.62c-1.75,2.52-3.7,4.93-5.72,7.24C85.17,224.25,85.45,221.52,85.96,218.83
	z M103.32,178.37c-5.61,4.89-11.14,9.92-15.84,15.71c4.68-10.37,11.17-19.86,18.78-28.29C104.31,169.63,103.41,174.08,103.32,178.37
	z M107.9,207.43c2.25-5.52,3.58-11.39,4.07-17.32c0.2-2.42-0.51-5.98,0.48-8.19c0.97-2.15,3.5-3.91,4.92-5.81
	c3.11-4.16,6.27-9.32,6.82-14.59c0.23-2.24-0.23-4.56-2.45-5.62c-2.65-1.27-5.65,0.55-7.81,2.01c7.15-6.63,16.28-12.43,25.01-16.72
	c4.56-2.24,9.35-4.06,14.11-5.81c4.68-1.72,9.6-3.18,14.64-2.56c-7.98,0.29-15.86,2.76-22.52,7.19
	c-7.01,4.66-12.13,11.6-16.83,18.46c-5.24,7.66-8.58,16.08-11.47,24.86c-2.99,9.07-5.01,18.31-9.98,26.61
	C107.22,209.08,107.56,208.25,107.9,207.43z M192.04,152.07c-1.67,1.42-3.32,2.96-5.49,3.56c0.32-0.97,0.42-2.19,1.34-2.8
	C188.88,152.16,190.89,152.15,192.04,152.07z M381.78,151.28c4.31,3.05,8.52,6.27,12.28,9.97c3.91,3.84,6.9,8.26,9.93,12.79
	c6,8.98,12.62,19.28,14.32,30.15c-3.85-7.11-8.22-13.97-14.13-19.56c-1.61-1.52-3.24-3.05-4.94-4.46c-1.52-1.26-2.05-1.67-2.2-3.72
	c-0.31-4.16-1.09-8.24-3.39-11.8c-2.29-3.54-12.69-14.61-15.86-6.53c-1.35,3.43,0.54,7.67,1.67,10.91c1.22,3.5,2.87,7.07,5.36,9.86
	c1.06,1.19,2.79,2.23,3.44,3.74c0.64,1.47,0.29,3.54,0.45,5.12c0.53,5.18,1.81,10.26,3.44,15.2c-3.7-7.79-7.76-15.52-10.66-23.65
	c-2.8-7.84-6.13-14.93-10.94-21.76c-4.47-6.36-9.46-12.41-15.79-17.01c-2.95-2.14-6.13-4.2-9.58-5.42
	c-4.16-1.48-8.67-1.57-13.02-1.97c9.02-0.26,17.77,2.32,26.01,5.78C366.35,142.36,374.51,146.12,381.78,151.28z M415.19,225.52
	c-1.99-1.97-3.91-4.08-5.54-6.37c-1.55-2.19-1.74-4.41-1.92-7.01c2,1.62,5.02,3.74,6.27,6.03
	C415.06,220.11,414.93,223.35,415.19,225.52z M340.11,436.67c-0.8-1.2-1.95-1.59-2.81-2.57c-1.05-1.19-0.22-1.94-0.11-3.57
	c0.2-2.95-1.64-6.83-5.19-6.05c1.32-3.57,2.42-7.21,3.31-10.91c2.86,8.22,5.22,16.72,5.84,25.44
	C340.95,438.19,340.59,437.37,340.11,436.67z M214.86,140.56c1.34-1.57,3.02-2.8,4.92-3.61c2.31-0.98,3.44-0.65,5.62,0.31
	C222.12,138.97,218.49,139.93,214.86,140.56z M255.19,61.64c0.94,1.4,1.78,2.87,2.5,4.39c-0.82,0.08-1.66,0.31-2.41,0.66
	C255.24,65,255.22,63.32,255.19,61.64z M158.89,144.27c1.62-0.65,3.33-1.1,5.06-1.35c-0.21,0.59-0.97,2.37-1.64,2.64
	C161.49,145.88,159.66,144.59,158.89,144.27z M242.28,65.93c0.79-1.38,1.8-2.62,2.8-3.86c0,1.53,0,3.06,0,4.59
	C244.22,66.24,243.24,65.99,242.28,65.93z M338.31,146.09c-0.67-1.05-1.53-2.02-1.94-3.22c1.71,0.43,3.37,1.02,5,1.69
	C340.33,145.01,339.32,145.54,338.31,146.09z M264.3,398.99c0.87-3.09,2.87-6.03,6.05-7.04c1.76,5.11-2.73,9.75-6.65,12.3
	C263.7,402.48,263.82,400.69,264.3,398.99z M276.15,373.78c-9.57-2.19-16.05,8.2-18.58,15.77c0.14-1.24-0.02-2.37-0.41-3.54
	c-0.24-0.72-0.67-1.09-0.51-1.86c0.28-1.32,1.7-2.77,2.21-4.07c0.76-1.95,0.7-3.87-0.03-5.81c-0.8-2.15-2-3.14-1.6-5.5
	c0.18-1.09,0.5-2.03,0.51-3.16c0.01-0.91-0.71-2.71-0.25-3.52c0.57-0.99,3.95-1.7,4.94-2.23c4.16-2.22,7.77-5.39,10.84-8.95
	c0.42,7.72,7.81,14.18,15.56,11.67c8.03-2.6,9.17-13.48,1.29-17.1c3.59,0.05,8.51,3.35,9.54,6.9c1.14,3.96-0.58,9.88-1.5,13.73
	c-0.83,3.47-1.68,7.34-4.15,10.07c-1.41,1.55-3.18,2.41-5.13,3.09c-1.75,0.6-4.2,0.88-5.16,2.69
	C282.67,378.17,280.14,374.68,276.15,373.78z M243.94,370.08c-1.87,3.06-3.45,6.23-2.01,9.82c0.54,1.34,1.92,2.83,1.87,4.35
	c-0.05,1.44-0.98,2.72-0.93,4.31c-2.03-6.12-6.33-12.28-12.88-13.99c-6.19-1.62-11.68,2.42-13.03,8.48
	c-1.02-3.95-6.92-3.58-9.67-5.92c-3.14-2.68-4.21-6.95-5.11-10.79c-0.97-4.14-2.76-9.98-1.05-14.09c1.6-3.83,5.37-6.86,9.6-6.94
	c-8.2,3.18-7.85,14.62,0.47,17.41c7.97,2.68,15.73-4.51,15.84-12.41c3.8,3.91,8.51,6.94,13.47,9.18c0.93,0.42,1.89,0.79,2.81,1.21
	c1.22,0.56,0.96,0.48,0.78,1.61C243.69,365.05,243.08,367.27,243.94,370.08z M230.2,392.01c5.18,1.72,6.23,7.39,6.33,12.11
	C232.22,401.28,229.21,397.42,230.2,392.01z M331.39,225.11c0.16,2.46,0.74,4.88,1.61,7.19c-1.62-0.58-2.17-0.5-2.66-2.29
	c-0.5-1.83-0.85-3.79-1.04-5.68C330.01,224.55,330.71,224.81,331.39,225.11z M317.44,193.91c3.71,0.82,7.54,1.41,10.9,3.29
	c-3.66-0.82-7.39-1.35-11.1-1.92c-1.19-0.18-3.14-0.08-4.19-0.63c-1.26-0.66-0.71-1.55-0.82-2.85
	C313.8,192.86,315.61,193.5,317.44,193.91z M171.1,225.01c-0.11,1.77-0.11,4.29-0.8,5.94c-0.73,1.74-1.6,1.2-3.32,1.72
	c0.71-1.71,1-3.46,1.47-5.23C168.89,225.82,169.65,225.66,171.1,225.01z M174.87,209.84c-0.6,1.17-1.13,3.56-2.2,4.36
	c-1.34,1.01-4,1.3-5.59,1.99c-4.47,1.95-8.64,4.42-12.06,7.95c1.44-4.4,6.51-8.55,9.94-11.44c3.9-3.28,8.38-5.76,13.17-7.48
	C176.81,206.57,175.72,208.15,174.87,209.84z M184.58,193.43c1.26-0.33,2.45-0.88,3.52-1.62c-0.1,0.94,0.38,2.12-0.52,2.74
	c-0.94,0.65-3.46,0.56-4.58,0.75c-3.65,0.61-7.31,1.22-10.95,1.9C175.93,195.07,180.37,194.54,184.58,193.43z M248.26,124.41
	c1.34-2.05,1.87-2.83,3.51-0.62c1.33,1.8,2.29,3.84,3.05,5.94c0.43,1.19,0.78,2.41,1.13,3.63c0.15,0.55,1.01,2.32,0.86,2.9
	c-0.3,1.21-2.93,2.24-4.09,2.88c-2.57,1.43-3.84,0.79-6.25-0.66c-1-0.6-2.79-1.13-2.94-2.33c-0.14-1.13,1.07-3.59,1.42-4.61
	C245.78,129.04,246.83,126.61,248.26,124.41z M314.78,310.63c-0.72-6-8.99-8.91-12.95-4.07c-0.06-1.33-0.74-4.21,0.22-5.19
	c0.55-0.56,2.07-0.83,2.79-1.23c0.98-0.55,1.9-1.2,2.73-1.96c3.16-2.88,4.42-6.88,4.02-11.09c-0.87-9.25-8.45-14.46-17.35-14.13
	c2.69-2.03,5.72-7.67,0.69-9.22c3.41-1.87,7.78-3.26,9.84-6.82c3.51,7.01,6.1,14.25,7.06,22.06c0.47,3.82,0.91,7.85,0.24,11.67
	c-0.43,2.46-1.48,5.19-0.84,7.7c0.82,3.22,3.98,3.74,6.71,4.69c3.29,1.15,5.82,3.27,7.95,5.99c0.76,0.97,1.45,1.41,0.91,2.34
	c-0.53,0.91-2.32,1.88-3.18,2.44c-3.2,2.09-7.22,2.97-10.89,3.86C314.51,315.81,315.08,313.13,314.78,310.63z M320.66,348.82
	c-0.23,1.13-0.39,3.61-1.44,4.33c-0.86,0.59-0.49,0.17-1.34,0.11c-0.16-0.01-1.74-0.56-1.8-0.32c0.51-2.03-0.93-4.25,1.05-5.96
	c0.42-0.36,2.36-1.45,2.96-1.21C321.08,346.16,320.84,347.94,320.66,348.82z M179.74,349.82c-0.81-2.85,0.34-5.82,3.38-3.15
	c1.16,1.02,2.06,3.18,1.59,4.75c-0.46,1.49-1.86,1.42-2.77,2.78C180.81,352.98,180.18,351.39,179.74,349.82z M281.31,333.99
	c-0.5-3.39-4.28-3.7-6.99-3.13c1.28-4.8,2.14-9.91,1.48-14.88c3.39,3.52,7.2,6.65,11.34,9.25
	C283.32,325.81,281.42,330.57,281.31,333.99z M218.78,331.57c-0.54-2.84-2.64-6.35-5.94-6.21c4.45-2.65,8.47-6,12.06-9.71
	c-0.31,4.82,0.28,10.22,1.29,14.93C223.81,329.93,220.56,329.35,218.78,331.57z M172.46,294.83c1.63-4.98,2.79-10.18,5.22-14.86
	c0.07,4.63,0.56,9.29,1.98,13.71c-2.83,0.4-5.56,1.53-7.81,3.31C172.02,296.26,172.22,295.53,172.46,294.83z M180.59,304.27
	c3.51-0.97,10.19-1.06,10.96-5.7c0.33-1.97-0.72-3.77-1.44-5.52c-0.92-2.24-1.39-4.59-1.52-7.01c-0.27-5.02,0.21-10.38,1.73-15.18
	c1.43-4.51,3.97-8.54,5.94-12.81c2.32,2.75,5.98,3.99,9.05,5.67c-4.89,1.51-2.23,6.97,0.37,9.04c-8.72-1.36-15.94,5.42-16.56,14.01
	c-0.28,3.94,1.11,8.13,3.63,11.16c0.67,0.81,1.43,1.56,2.28,2.18c0.69,0.51,1.89,0.79,2.47,1.35c0.75,0.73,0.52,0.15,0.61,1.31
	c0.09,1.14-0.34,2.57-0.56,3.68c-6.24-5.51-13.35,2.68-10.65,9.21c-3.67-0.77-9.49-1.25-12.36-4.01
	C171.7,308.93,178.22,304.91,180.59,304.27z M264.8,259.62c-0.17-1.51,1.51-3.88,2.27-5.06c1.15-1.79,2.61-3.36,4.34-4.61
	c1.9,6.31,1.54,12.67-0.35,18.91c-0.7,2.32-1.18,4.9,1.28,6.35c2.03,1.2,4.75,0.51,6.84-0.17c-0.73,2.56-1.75,5.04-2.99,7.39
	c-2.46-4.79-8.12-6.54-12.92-4.17C265.53,272.37,266.43,265.79,264.8,259.62z M263.92,330.14c0.52-5.37-0.25-12.46,2.43-17.32
	c2.3,5.19,0.57,12.55-1.04,17.69C264.87,330.29,264.41,330.17,263.92,330.14z M282.62,308.87c-3.1-3.36-6.14-6.78-9.18-10.2
	c5.88-3.36,9.3-9.3,14.74-13.19c-1.3,2.15-1.88,4.73-1.45,7.21c0.21,1.22,0.86,2.26,0.58,3.49c-0.24,1.07-1.08,2-1.38,3.07
	c-1.11,3.97,3.09,10.4,7.3,6.51c-0.05,4.56,1.83,9.23,5.26,12.29C292.46,316.7,286.81,313.4,282.62,308.87z M234.21,315.48
	c1.32,4.9,1.2,10.02,1.8,15.03c-2.06-0.12-1.84-4-2.04-5.62C233.6,321.79,233.32,318.51,234.21,315.48z M249.52,310.63
	c0.08-1.9,0.35-3.82,1.07-5.59c1.76,6.9,0.82,14.12,0.27,21.11c-0.54-0.15-1.08-0.17-1.63-0.07
	C249.02,320.93,249.31,315.77,249.52,310.63z M240.08,222.79c0.18,0.79,1.7,6.57-0.25,3.47c-1.47-2.34-2.36-5.86-2.35-8.57
	C238.86,219.05,239.66,220.92,240.08,222.79z M224.78,275.79c2.04,0.52,4.23-0.44,4.85-2.52c0.69-2.3-0.9-4.68-1.41-6.86
	c-1.27-5.37-0.79-11.37,1.21-16.49c3.12,3.72,5.92,8.26,5.38,13.18c-0.56,5.13,0.57,10.33,2.45,15.09
	c-4.33-1.88-9.43-0.38-11.98,3.61c-1.11-2.18-2.07-4.45-2.84-6.77C223.2,275.34,223.99,275.58,224.78,275.79z M222.81,296.32
	c1,0.84,2.08,1.59,3.17,2.31c-5.36,7.27-13.42,14.63-22.39,16.9c2.3-3.13,2.37-7.04,2.77-10.75c1.19,1.86,3.7,2.43,5.57,1.29
	c1.87-1.14,2.56-3.5,2.5-5.58c-0.05-1.94-1.32-3.47-0.89-5.25c0.66-2.71,1.16-5.01,0.52-7.86
	C216.86,290.48,219.61,293.64,222.81,296.32z M190.44,333.6c-0.89,1.85-1.63,3.77-2.15,5.76c-1-0.68-2.03-1.32-3.11-1.86
	C186.73,335.94,188.54,334.67,190.44,333.6z M201.67,332.93c2.01-2.41,4.88-3.83,7.53-5.4c-1.9,3.17,3.16,7.05-1.4,8.55
	c-4.17,1.37-7.53,2.79-10.6,6.1C197.93,338.8,199.45,335.58,201.67,332.93z M290.75,333.02c1.34-1.24,1.93-3.23,1.26-4.96
	c5.69,3.39,9.64,7.39,11.12,14.09c-2.16-2.16-4.61-4.22-7.55-5.19C294.51,336.6,287.96,335.58,290.75,333.02z M263.88,223.76
	c-0.27,0.89-2.27,6.6-2.2,2.84c0.06-2.94,1.24-6.98,2.85-9.39C264.77,219.4,264.53,221.65,263.88,223.76z M254.28,219.24
	c-1.96-2.56-5.19-1.5-6.48,1.11c-0.13-5.14-0.22-10.9,2.71-15.38C253.22,209.22,254.37,214.23,254.28,219.24z M187.95,363.11
	c3.27,2.51,4.43,6.65,6.16,10.28C190.44,371.23,187.41,367.61,187.95,363.11z M307.27,370.91c1.49-3.21,2.33-5.97,5.65-7.59
	c0.29,4.46-3.14,7.79-6.71,9.86C306.57,372.42,306.92,371.66,307.27,370.91z M314.06,338.95c-0.61,0.28-1.2,0.59-1.77,0.94
	c-0.55-2.2-1.37-4.33-2.37-6.37c2.24,1.21,4.28,2.8,5.96,4.71C315.26,338.44,314.66,338.68,314.06,338.95z M322.62,281.41
	c2.27,4.58,4.14,9.36,5.58,14.27c-1.23-0.82-2.53-1.51-3.89-2.07c-0.67-0.28-1.73-0.41-2.31-0.83c-0.98-0.71-0.93-0.2-0.57-1.75
	C322.18,287.87,322.52,284.64,322.62,281.41z M295.28,201.78c0.71-1.5,0.99-3.22,0.87-4.87c1.6,1.42,3.63,1.99,5.26,3.23
	c1.32,1,0.92,1.88,0.58,3.64c-0.92,4.82-2.54,9.48-3.55,14.28c-2.09,9.93-1.29,19.22,1.97,28.77c-7.67-1.06-11.9,5.96-15.63,11.42
	c0.27-5.17-0.5-10.35-2.19-15.24c-0.65-1.88-0.44-1.8,0.9-3.15c1.59-1.6,3.07-3.41,4.34-5.27c5.91-8.63,4.99-19.03-0.04-27.79
	C290.96,206.6,293.91,204.65,295.28,201.78z M240.24,160.42c0.82,5.49,2.39,10.86,4.62,15.94c-4.54-4.89-8.35-10.51-9.92-17.08
	C236.71,159.66,238.48,160.04,240.24,160.42z M232.68,209.92c-3.51,2.59-4.24,7.35-3.64,11.41c-2.57-4.95-3.25-11.02-1.25-16.29
	C228.48,207.28,230.38,209.32,232.68,209.92z M273.37,215.58c-0.4-2.52-1.66-4.96-3.64-6.61c1.35-1.02,2.34-2.57,2.65-4.24
	C273.75,208.13,274.15,211.98,273.37,215.58z M258.83,167.05c0.28-1.19,0.33-4.44,1.07-5.32c0.77-0.91,3.28-0.94,4.41-1.16
	c-0.78,3.1-1.34,6.31-2.93,9.13c-1.62,2.87-4,5.25-6.22,7.64C256.69,174.03,257.99,170.6,258.83,167.05z M209.21,181.56
	c2.05,1.24,3.96,2.74,5.58,4.52c-1.96,0.4-3.84,1.25-5.42,2.48C210,186.27,209.98,183.81,209.21,181.56z M213.48,206.08
	c0.44-0.02,0.88-0.08,1.32-0.16c-5.16,7.68-7.07,17.49-3.45,26.21c0.88,2.13,2.04,4.12,3.36,6.01c1.18,1.69,2.96,2.97,2.72,5.05
	c-0.26,2.25-1.27,4.54-1.68,6.79c-0.47,2.62-0.69,5.28-0.52,7.94c-3.39-5.04-7.25-11.46-14.18-11.19c3.3-9.9,2.16-20.38,0.1-30.41
	c-0.94-4.54-2.2-9.02-3.16-13.55c-0.42-1.97-0.38-2.07,1.28-2.77c2.22-0.94,4.29-2.29,5.96-4.04
	C204.7,200.91,208.04,206.38,213.48,206.08z M195.37,176.96c0.72,0.01,1.43,0.08,2.13,0.21c-2.93,1.29-5.15,3.79-6.74,6.51
	c-3.01-5.84-14.06-1.76-18.09,0.41C178.92,179.62,187.71,176.96,195.37,176.96z M342.52,222.65c-3.82-3.21-7.78-6.49-12.48-8.31
	c-2.37-0.91-2.77-1.7-3.95-3.83c-1.17-2.12-2.81-4.02-4.42-5.81c5.87,2.08,11.25,5.13,15.71,9.5c4.11,4.03,8.71,8.31,10.74,13.84
	C346.38,226.12,344.5,224.32,342.52,222.65z M315.75,180.89c-2.3-0.09-4.95,0.61-6.12,2.78c-1.59-2.67-3.82-5.18-6.7-6.48
	c4.3-0.7,8.77,0.47,12.89,1.59c4.03,1.1,7.98,2.62,11.39,5.09C323.68,182.02,319.73,181.05,315.75,180.89z M290.66,186.92
	c-1.21-0.91-2.58-1.65-4.07-1.97c1.4-1.34,2.97-2.49,4.63-3.48C290.65,183.21,290.42,185.09,290.66,186.92z M258.19,111.39
	c-2.16-2.16-5.19-4.21-8.37-4.07c-2.92,0.13-5.66,2.11-7.64,4.13c-0.39-2.46,1.11-4.32,2.69-6.07c0.91-1.01,1.91-1.93,2.96-2.78
	c0.61-0.49,2.28-2.22,3.08-2.2c1.49,0.03,3.51,3.28,4.31,4.36C256.51,106.5,258.57,109.06,258.19,111.39z M238.69,144.59
	c0.2,0.01,0.41,0.02,0.61,0.03c-2.79,5.86-11.86,4-16.69,2.43C227.8,145.37,233.22,144.31,238.69,144.59z M159.88,183.02
	c-2.24,2.64-4.25,5.48-5.94,8.5c0.04-4.2,3.9-8.85,6.08-12.24c2.66-4.13,5.66-8.02,8.95-11.66
	C166.43,173,163.77,178.46,159.88,183.02z M153.09,278.79c2.01-6.24,7.56-11.61,11.21-16.94c3.78-5.53,7.19-11.38,9.92-17.5
	c2.74-6.14,4.44-12.66,6.07-19.17c0.34-1.36,0.46-3.24,1.25-4.41c0.68-1.01,1.91-1.64,2.84-2.4c2.3-1.89,4.63-4.11,5.86-6.87
	c0.88,7.6,0.93,15.45-2.33,22.52c-3.05,6.62-8.5,11.82-12.82,17.61c-4.38,5.86-8.33,12.08-11.36,18.75
	c-0.72,1.59-1.38,3.2-1.99,4.83c-0.21,0.58-0.36,1.73-0.9,2.14c-0.71,0.54-2.79,0.23-3.72,0.59c-1.56,0.6-2.91,1.73-3.8,3.13
	C153.22,280.4,152.87,279.49,153.09,278.79z M344.41,278.02c-1.98-0.91-4.35,0.31-5.45-1.36c-0.68-1.03-0.99-2.8-1.48-3.96
	c-0.65-1.54-1.35-3.06-2.08-4.57c-3.23-6.62-7-13.15-11.83-18.74c-4.28-4.95-8.84-9.6-11.38-15.75c-2.81-6.82-2.92-14.35-2.12-21.58
	c1.37,2.96,3.83,5.4,6.46,7.28c1.1,0.78,2,1.08,2.46,2.33c0.49,1.37,0.48,3.2,0.75,4.64c1.32,7.09,3.01,14.17,6.49,20.55
	c3.24,5.94,7.5,11.23,11.54,16.63c4.36,5.82,8.99,11.4,10.37,18.73C347.49,280.41,346.18,278.83,344.41,278.02z M305.87,166.22
	c-1.69,0-3.38,0.08-5.07,0.23c1.01-1.82,2.02-3.65,3.04-5.47c2.38,1.81,4.77,3.6,7.08,5.49
	C309.25,166.3,307.56,166.22,305.87,166.22z M265.27,147.9c-1.82-0.51-3.48-1.62-4.28-3.39c2.3-0.3,4.69,0.46,6.91,0.94
	c2.73,0.59,5.42,1.27,8.12,1.99C272.56,148.51,268.81,148.88,265.27,147.9z M240.79,81.72c0.46,0.12,0.93,0.19,1.4,0.21
	c-1.83,1.65-2.91,3.9-3.86,6.13c-0.2-2.51-0.18-5.04,0.07-7.55C239.08,81.08,239.94,81.5,240.79,81.72z M219.26,157.03
	c-2.87,2.64-4.27,6.96-2.91,10.71c1.27,3.49,5.07,5.48,8.61,4.06c-1.1,3.31-2.3,7.53-0.35,10.77c1.56,2.6,5,3.62,7.71,2.23
	c-0.06,1.76,0.45,3.57,1.8,4.78c-1.12,0.36-2.21,0.8-3.28,1.29c-1.63,0.75-1.36,0.54-2.23-0.95c-0.91-1.57-1.98-3.04-3.1-4.46
	c-2.43-3.07-5.2-5.87-7.56-9.01c-5.23-6.99-6.99-16.08-7.72-24.62c3.52,1.54,7.16,2.75,10.84,3.84
	C220.45,156.06,219.82,156.52,219.26,157.03z M147.41,158.56c-0.78,0.84-1.99,4.06-2.89,4.37c-0.41,0.14-1.44-0.36-1.86-0.47
	c-1.37-0.35-2.76-0.63-4.14-0.95c2.9-3.94,6.08-7.72,9.9-10.8c0.68,1.82,1.55,3.58,2.53,5.26
	C149.64,156.61,148.41,157.49,147.41,158.56z M174.61,324.69c-5.14,5.88-6.41,14.43-6.09,21.98c-3.8-10.54-7.89-21.05-10.11-32.07
	C163.4,318.57,168.89,321.89,174.61,324.69z M355.9,163.52c-1.1-3.02-3.15-5.71-6-7.27c0.98-1.57,1.88-3.19,2.69-4.86
	c3.85,2.96,7.03,6.68,9.84,10.61C360.24,162.4,358.01,162.76,355.9,163.52z M345.79,189.86c-0.1,0.88-0.2,1.75-0.3,2.63
	c-4.62-7.73-10.46-14.39-14.02-22.76c2.86,3.36,5.49,6.93,8.04,10.53c1.25,1.77,2.47,3.56,3.67,5.37
	C343.72,186.43,345.92,188.82,345.79,189.86z M310.06,153.68c-0.47-0.44-0.95-0.87-1.43-1.29c3.27-0.06,4.13,0.17,5.24,3.25
	C312.47,155.32,311.11,154.67,310.06,153.68z M289.29,164.17c-1.39,5.34-5.15,9.48-8.82,13.41c-3.91,4.19-7.12,8.9-9.48,14.13
	c-1.54-0.78-3.14-1.44-4.76-2.03c1.32-1.23,1.82-3.09,1.82-4.84c2.85,1.47,6.34,0.36,7.71-2.52c1.54-3.24,0.51-7.33-0.46-10.59
	c3.84,1.72,7.79-0.74,8.86-4.59c1.17-4.22-1.11-8.6-4.53-11.06c3.59-1.34,7.13-2.81,10.63-4.36
	C290.66,155.88,290.34,160.12,289.29,164.17z M286.17,141.27c-4.15-0.06-8.36-1.18-11.89-3.39c2.73-1.22,4.77-2.56,7.78-1.36
	C283.37,137.03,286.84,139.34,286.17,141.27z M273.35,117.53c0.09,0.17,0.17,0.33,0.26,0.5c-1.32,0.5-2.4,1.28-3.36,2.3
	c-0.72,0.77-0.79,1.44-1.98,0.82c-1.55-0.79-0.47-5.11-0.28-6.77c0.72-6.51,2.87-12.71,5.69-18.6
	C272.16,103.28,269.77,110.16,273.35,117.53z M260.81,85.49c-0.62-1.34-1.52-2.58-2.62-3.56c1.3-0.03,2.63-0.47,3.66-1.27
	c0.47,2.94,0.77,5.93,0.75,8.91C262.04,88.19,261.43,86.84,260.81,85.49z M189.51,166.47c2.29-2.01,4.6-3.98,6.89-5.98
	c1.1,1.99,2.21,3.98,3.31,5.97C196.32,166.16,192.9,166.12,189.51,166.47z M168.11,424.49c-3.05-0.55-4.98,2.59-5.09,5.25
	c-0.04,1.06,0.91,3,0.46,3.92c-0.53,1.07-2.49,1.88-3.26,2.98c0.66-7.23,2.95-14.17,5.25-21.02
	C165.78,416.81,167.66,424.41,168.11,424.49z M330.46,355.74c2.99-10.08,1.24-20.91-4.11-29.89c5.8-2.4,11.4-5.31,16.53-8.93
	c-1.62,6.71-3.1,13.45-5.36,19.98C335.36,343.11,333.6,349.93,330.46,355.74z M302.5,145.55c-1.34,0.55-3.63-0.48-2.16-1.94
	c0.89-0.88,3.83-0.29,4.89-0.1C304.5,144.38,303.57,145.11,302.5,145.55z M271.35,60.49c-0.56-0.74-1.04-1.56-1.39-2.42
	c0.59,0,1.16-0.1,1.72-0.3c0.21,1.33,0.47,2.65,0.76,3.97C272.05,61.34,271.69,60.93,271.35,60.49z M245.25,47.74
	c-1.09,1.22-2.17,2.43-3.24,3.66c0.57-2.51,1.99-4.66,3.27-6.85C245.28,45.61,245.27,46.67,245.25,47.74z M230.01,59.05
	c-0.56,0.97-1.28,1.85-2.1,2.61c0.27-1.29,0.5-2.59,0.69-3.89c0.45,0.15,1.21,0.34,1.89,0.31C230.36,58.41,230.2,58.73,230.01,59.05
	z M230.89,121.46c-1.03-1.48-2.46-2.66-4.15-3.3c4.04-7.73,1.22-15.17-0.3-23.1c3.25,8.36,5.85,17.01,7.21,25.89
	C232.72,120.97,231.77,121.16,230.89,121.46z M141.9,276.11c-4.91-11.22-7.9-26.41,1.28-36.49
	C142.32,251.76,141.57,263.93,141.9,276.11z M155.86,357.52c1.86,1.35,2.79,1.07,2.97,3.32c0.18,2.23,0.58,4.38,1.23,6.52
	c-1.79-3.44-3.48-6.94-5.05-10.49C155.3,357.08,155.58,357.3,155.86,357.52z M329.62,464.1c-0.57-0.61-1.07-1.32-1.43-2.08
	c2.68,3,7.38,4.1,11.19,2.88c3.71-1.19,6.31-4.78,7.99-8.11c-0.97,3.5-2.39,7.7-5.69,9.68C337.83,468.78,332.54,467.21,329.62,464.1
	z M359.22,244.14c7.65,9.09,3.5,22.05-0.72,31.82C359.76,265.4,359.82,254.74,359.22,244.14z M432.62,228.31
	c-2.65,7.94-4.47,16.18-4.8,24.56c-1.61-4.4-3.15-8.9-3.51-13.6c-0.35-4.58,0.2-9.2,0.67-13.75c0.98-9.57,3.47-18.98,3.96-28.59
	c2.23,4.76,5.45,9.9,6.02,15.21C435.55,217.59,434.35,223.16,432.62,228.31z M297.22,134.82c-1.88-2.16-3.3-2.87-5.73-1.23
	c0.1-1.92,0.65-3.79,1.38-5.56C295.11,129.12,297.86,132.1,297.22,134.82z M255.22,46.6c0.02-0.58,0.04-1.15,0.05-1.73
	c0.98,1.6,1.99,3.2,2.63,4.97C257.42,49.27,255.2,47.44,255.22,46.6z M207.85,132.98c-1.99-1.02-3.78,0.59-5.03,2.2
	c-0.24-2.63,2.44-6.15,4.59-7.35c0.77,1.83,1.36,3.79,1.48,5.78C208.56,133.37,208.21,133.16,207.85,132.98z M200.26,145.04
	c-0.84,0.76-4.51-0.75-5.16-1.51C196.77,143.25,200.29,142.72,200.26,145.04z M132.31,170.94c0.78,1.23,1.6,2.45,2.46,3.63
	c-2.41,0.71-4.54,2.2-6.16,4.11C129.66,176.01,130.88,173.42,132.31,170.94z M142.87,216.65c0.96-3.39,2.02-6.76,3.2-10.08
	c-0.02,3.54,0.01,7.18-1.11,10.58c-1.07,3.23-2.78,6.7-4.54,9.61C141.1,223.36,141.92,219.98,142.87,216.65z M152.73,453.68
	c2.18,7.34,11.52,15.82,18.79,9.2c-3.1,3.77-9.42,6.37-13.73,3.08c-4.58-3.49-5.75-11.31-6.13-16.63
	C151.94,450.79,152.3,452.25,152.73,453.68z M188.71,423.81c4.65,3.24,8.85,7.15,11.6,12.16c1.45,2.65,2.5,5.49,3.2,8.43
	c0.27,1.12,0.71,2.44,0.77,3.59c0.06,1.31-0.29,1.56-1.17,2.55C200.77,440.5,195.35,431.58,188.71,423.81z M305.18,428.61
	c1.35-1.39,2.85-2.62,4.44-3.71c-5.81,7.72-10.44,16.34-12.37,25.87c-1.34-1.47-1.36-1.81-1.01-3.75c0.42-2.36,0.98-4.69,1.8-6.95
	C299.58,435.8,302.02,431.87,305.18,428.61z M354.53,212.61c-0.47-2.11-0.63-4.29-0.63-6.45c2.8,7.54,5.3,15.2,7.05,23.06
	C357.86,224.11,355.82,218.42,354.53,212.61z M368.36,172.56c0.7,1.61,1.42,3.22,2.13,4.83c-1.14-1.06-2.49-1.9-3.93-2.47
	C367.18,174.15,367.78,173.36,368.36,172.56z"/>
<g>
	<path class="st4" d="M103.75,226.41c0.84,5.13-2.77,9.97-5.84,13.68c-3.49,4.22-7.52,8.09-11.81,11.49
		c-1.61,1.28-3.57,2.29-4.9,3.88c-1.6,1.91-2.3,4.61-3.4,6.82c-2.35,4.69-5.59,9.13-9.63,12.5c-3.52,2.94-9.5,6.48-14.27,5.28
		c-3.93-0.99-5.7-5.11-6.32-8.76c-0.97-5.69-0.49-11.74,0.04-17.45c0.56-6.06,1.32-12.12,2.49-18.09
		c4.26-21.59,13.81-41.91,26.06-60.09c6.31-9.36,13.86-17.73,21.83-25.68c7.76-7.74,16.97-13.5,26.82-18.2
		c11.2-5.35,24.37-9.82,36.95-9.29c11.76,0.5,22.03,8.71,22.93,20.84c1.97-1.19,3.35-3.09,4.98-4.67c2.05-1.99,4.41-3.65,6.43-5.67
		c1.63-1.63,2.04-3.52,3.02-5.53c1.03-2.1,2.75-4.09,4.79-5.27c2.18-1.26,4.56-1.18,7-1.23c2.64-0.05,4.17-0.87,6.04-2.73
		c3.97-3.94,5.52-8.17,5.01-13.74c-1.03-11.33-3.05-23.1-1.59-34.47c0.71-5.58,2.06-10.99,2.59-16.62
		c0.49-5.21,1.82-10.23,4.79-14.6c1.38-2.03,3.05-3.89,4.96-5.44c1.99-1.63,2.99-2.72,4.11-5.01c1.95-4.03,5.26-7.77,9.6-9.24
		c4.73-1.6,9.45,0.3,12.9,3.66c1.72,1.68,3.09,3.64,4.25,5.74c1.15,2.08,2.47,3.37,4.26,4.91c3.79,3.26,6.72,7.42,8.21,12.22
		c1.64,5.29,1.53,10.99,2.59,16.41c2.25,11.47,2.85,23.1,1.39,34.71c-0.71,5.61-1.58,11.47,0.24,16.96c0.87,2.62,2.3,5.54,4.6,7.2
		c2.47,1.79,4.81-0.03,7.56,0.38c5.62,0.85,7.98,5.13,10.22,9.71c1.09,2.22,3.4,3.56,5.25,5.13c2.61,2.22,5.2,4.46,7.85,6.64
		c1.21-4.89,2.67-10.08,6.38-13.7c3.95-3.85,9.61-5.97,15.03-6.51c11.91-1.19,24.97,3.29,35.74,7.96
		c10.74,4.66,20.65,10.71,29.05,18.91c8.82,8.6,17,17.87,23.72,28.22c13.33,20.54,23.77,44.81,26.3,69.3
		c0.64,6.16,0.93,12.36,1.01,18.55c0.06,4.55-0.18,9.68-4.02,12.77c-4.49,3.61-10.66,0.87-14.84-1.96
		c-4.64-3.13-8.2-7.73-10.94-12.55c-1.37-2.42-2.16-5.26-3.67-7.57c-1.4-2.14-4.15-3.59-6.09-5.2c-4.66-3.87-9.18-8.09-12.75-13.01
		c-1.6-2.21-3.12-4.64-3.9-7.28c-0.82-2.81-0.14-4.28-2.58-6.33c-4.64-3.91-9.18-7.88-13.35-12.3c-1.87-1.98-3.69-4.03-5.24-6.28
		c-1.48-2.14-2.14-5.03-3.85-6.95c-1.59-1.79-4.26-3.44-6.45-4.33c-1.65-0.67-5.73-2.43-7.03-0.5c-0.95,1.41,0.11,3.85,0.52,5.28
		c0.77,2.74,1.82,5.34,2.76,8.02c2.14,6.12,3.79,12.43,5.41,18.71c3.29,12.75,5.69,25.2,4.54,38.44
		c-1.01,11.61-4.02,24.11-9.69,34.36c-1.48,2.68-0.94,4.55-0.53,7.49c0.44,3.16,0.64,6.39,0.67,9.58
		c0.06,6.24-0.96,12.42-2.06,18.55c-2.22,12.33-6.73,24.13-12.49,35.23c-1.31,2.53-2.7,5.02-4.14,7.48
		c-0.79,1.35-1.6,2.69-2.42,4.02c-0.98,1.62-1.15,1.94-0.24,3.59c2.95,5.34,5.13,10.62,7.02,16.43c3.95,12.15,7.33,24.53,7.95,37.35
		c0.56,11.53-0.16,25.28-7.68,34.71c-6.89,8.64-18.1,10.78-27.33,4.22c-4.28-3.04-6.84-7.54-8.47-12.44
		c-3.24,3.23-7.94,5.43-12.13,2.32c-4.27-3.17-2.04-8.76-5.7-12.23c-1.55-1.46-3.37-2.64-4.42-4.54c-1.35-2.46-0.86-5.23-0.38-7.86
		c0.92-5.05,3.74-11.42,2.05-16.53c-10.16,5.13-20.51,10.37-30.3,16.18c-2.11,1.25-4.21,2.63-5.98,4.34
		c-1.56,1.51-3.08,3.71-5.31,4.27c-2.38,0.6-3.71-1.8-5.14-3.33c-1.9-2.02-3.86-3.93-6.12-5.55c-4.56-3.24-9.54-5.83-14.46-8.45
		c-2.38-1.27-4.75-2.56-7.15-3.81c-1.28-0.66-2.56-1.32-3.85-1.95c-0.58-0.28-3.1-1.95-3.7-1.66c-1.33,0.65-0.6,5.43-0.45,6.57
		c0.36,2.75,1.1,5.44,1.69,8.15c1.19,5.48,1.2,9.22-3.21,13.05c-1.9,1.65-3.38,3.27-3.79,5.84c-0.39,2.43-0.37,4.68-2.16,6.61
		c-3.57,3.83-9.64,2.6-12.81-1.08c-3.04,6.17-6.52,10.67-12.73,13.94c-6.02,3.17-12.07,2.74-17.83-0.88
		c-9.87-6.19-13.53-20.88-14.15-31.72c-0.78-13.75,3.65-27.82,7.61-40.83c1.87-6.14,4-12.15,7.28-17.7
		c0.93-1.58,3.38-4.01,2.89-5.63c-0.3-1-1.58-2.1-2.21-2.98c-1.19-1.67-2.35-3.36-3.45-5.09c-7.03-10.98-12.08-23.27-15.24-35.91
		c-1.69-6.78-2.45-13.71-2.55-20.69c-0.04-3.06-0.01-6.13,0.17-9.18c0.16-2.8,1.37-6.32,0.63-9.03c-0.71-2.57-2.6-5.05-3.6-7.56
		c-1.29-3.23-2.33-6.55-3.21-9.91c-1.75-6.66-3.02-13.51-3.06-20.42c-0.04-7.21,1.23-14.42,2.35-21.52
		c1.06-6.68,2.4-13.32,3.99-19.89c1.76-7.29,4.41-14.32,6.19-21.58c0.52-2.12,1.68-5.47-1.5-5.7c-2.16-0.16-4.86,1.18-6.7,2.17
		c-2.95,1.58-5.38,3.68-6.85,6.72c-1.56,3.22-3.71,5.93-6.08,8.6C115.56,216.38,109.62,221.38,103.75,226.41z M269.19,298.03
		c8.71,9.17,15.89,19.84,29.04,22.7c6.45,1.41,12.89,0.3,19.13-1.5c2.95-0.85,5.88-1.78,8.4-3.58c1.5-1.07,4.57-2.68,4.45-4.81
		c-0.11-1.75-2.15-3.55-3.24-4.75c-2.02-2.24-4.28-4.03-7.09-5.19c-1.98-0.82-5.57-0.94-6.08-3.43c-0.6-2.9,1.22-6.77,1.32-9.74
		c0.21-6.44-0.84-13.28-2.71-19.43c-1.92-6.3-5.2-11.96-7.66-18.03c-2.46-6.08-4.61-12.7-4.82-19.3
		c-0.21-6.68,1.28-13.03,3.11-19.39c0.89-3.09,1.75-6.22,1.99-9.44c0.05-0.7,0.42-2.46,0.07-3.15c-0.5-0.97-2.13-1.08-3.11-1.52
		c-4.87-2.19-9.13-7.32-8.65-12.93c0.48-5.6,5.81-6.94,10.09-3.96c4.62,3.22,6.05,8.61,6.18,13.9c0.06,2.45,0.28,2.41,2.56,2.76
		c3.22,0.49,6.45,0.95,9.66,1.49c3.22,0.54,6.43,1.15,9.57,2.03c1.49,0.42,2.96,0.9,4.41,1.45c0.75,0.28,2.61,1.52,3.49,1.56
		c2.09,0.09-0.98-2.09-1.62-2.65c-2.47-2.14-4.84-4.42-7.69-6.06c-3.05-1.76-6.3-2.58-9.72-3.24c-2.77-0.53-6.3-1.11-7.87-3.76
		c-1.68-2.85,0.54-4.54,3.36-4.59c2.98-0.05,6.24,0.99,8.95,2.14c6.72,2.85,11.6,7.79,16.51,13c-0.17-2.7-2.1-5.47-3.51-7.68
		c-1.69-2.65-3.8-4.96-6.16-7.03c-5.1-4.47-11.23-7.03-17.83-8.42c-6.74-1.43-12.87-1.31-19.27,1.43
		c-5.5,2.36-10.23,5.96-13.55,10.98c5.62-0.98,10.63,1.2,12.27,7.07c1.46,5.19-2.55,11.12-8.36,8.73c-2.06-0.84-3.57-2.76-3.71-5
		c-0.13-2.12,0.99-4.59,3.44-4.54c1.85,0.04,3.89,2.68,1.44,3.44c-1.06,0.33-2.11-0.46-1.75,1.4c0.25,1.29,1.74,2.02,2.96,1.89
		c6.2-0.68,1.29-9.27-2.65-9.95c-2.55-0.44-5.12,1.21-6.73,3.06c-2.13,2.45-1.61,3.89,0.61,5.8c8.31,7.16,13.95,19.14,9.22,29.84
		c-1.35,3.04-3.49,5.62-5.71,8.07c-0.68,0.75-2.45,1.89-2.74,2.85c-0.37,1.23,0.76,2.81,1.15,3.98c2.38,7.19,2.37,14.93,0.47,22.23
		c4.29-3.59,6.6-8.32,10.04-12.59c2.22-2.74,7.91-7.41,11.31-3.57c3.9,4.41-3.06,7.93-6.1,9.52c-2.29,1.2-4.82,2.31-6.96,3.74
		c-2.4,1.59-2.15,4.8-2.58,7.42c2.17-1.33,3.13-3.82,5.77-4.66c1.63-0.52,3.27-0.02,2.62,1.98c-0.59,1.85-2.85,2.73-4.31,3.75
		c-2.02,1.42-3.73,3.38-4.65,5.69c4.76-2.1,10.51-3.63,15.58-1.5c4.44,1.86,7.21,6.16,7.56,10.87s-1.99,8.85-6.31,10.84
		c-1.32,0.61-3.47,0.42-3.92,1.83c-0.39,1.22,0.24,3.6,0.28,4.91c0.11,3.78,0.59,8.39,4.82,9.75c1.89,0.61,4.77-0.1,5.04-2.49
		c0.36-3.16-2.12-0.91-3.25-0.68c-2.22,0.45-2.64-2.21-1.5-3.54c1.24-1.46,3.68-1.64,5.28-0.78c3.26,1.74,3.58,6.69,0.92,9.07
		c-2.94,2.65-7.78,1.98-10.51-0.58c-3.51-3.28-3.86-7.57-3.76-12.03c0.04-1.52-0.35-4.91-2.61-4.79c-1.78,0.09-1.44,2.05-1.63,3.33
		c-0.19,1.33-0.63,2.43-2.15,1.68c-1.86-0.92-1.52-3.56-0.82-5.11c0.31-0.7,1.27-1.35,1.49-1.98c0.28-0.82,0.02-1.12-0.25-1.96
		c-0.9-2.8-1.3-5.4,0.36-8.03c1.94-3.08,7.36-4.64,9.48-0.81c0.57,1.03,0.86,2.78-0.43,3.34c-1.73,0.77-2.78-1.84-4.22-2.13
		c-1.73-0.35-2.49,1.3-2.73,2.75c-0.32,1.95,0.28,3.6,1.97,4.71c4.36,2.87,9.58-0.59,10.23-5.32c0.64-4.64-2.51-9.24-7.2-9.9
		c-5.56-0.78-11.09,3.41-14.78,7.11c-1.97,1.98-3.7,4.18-5.73,6.1C274.79,294.95,272.01,296.45,269.19,298.03z M229.79,297.95
		c-4.59-3.16-8.46-6.51-12.21-10.66c-3.16-3.5-6.29-6.69-11.04-7.81c-4.01-0.94-8.54-0.3-10.31,3.9c-1.58,3.74-0.36,8.53,3.16,10.68
		c3.23,1.97,7.96,1.58,9.19-2.53c0.48-1.58,0.13-3.37-1.33-4.31c-3.05-1.97-2.79,1.74-4.8,2.41c-1.64,0.54-2.12-1.72-1.78-2.88
		c0.54-1.87,2.53-3.04,4.38-3.15c4.33-0.26,6.82,3.48,6.74,7.44c-0.03,1.27-0.28,2.34-0.75,3.51c-0.26,0.65-0.92,1.48-0.79,2.2
		c0.12,0.63,1.05,1.49,1.28,2.19c0.32,0.97,0.4,2.03,0.12,3.02c-0.37,1.32-1.79,3.18-2.99,1.4c-0.85-1.28,0.66-3.27-0.4-4.41
		c-2.97-3.19-4.68,6.3-4.77,7.42c-0.39,4.63-1.46,9.25-6.49,10.76c-3.53,1.06-7.82-0.36-8-4.5c-0.15-3.26,2.35-5.87,5.63-4.69
		c1.1,0.4,2.84,1.47,1.79,2.85c-1.13,1.49-2.7-0.72-3.81,0.27c-1.38,1.24,0.77,2.79,1.79,3.03c2.08,0.5,3.76-0.88,4.62-2.67
		c1.23-2.57,1.48-5.7,1.88-8.48c0.09-0.64,0.62-2.53,0.21-3.12c-0.32-0.47-1.77-0.51-2.23-0.67c-4.47-1.52-7.02-6.84-7.07-11.32
		c-0.05-4.56,2.64-9.75,6.93-11.6c5.69-2.46,10.84,0.59,16.11,2.41c-1.34-2.4-2.74-4.56-5.03-6.15c-1.51-1.04-4.17-2.21-4.47-4.28
		c-0.28-1.97,1.62-2.2,3.15-1.74c2.43,0.72,3.97,3.15,5.52,4.98c-0.08-2.22-0.44-4.67-1.83-6.48c-1.47-1.91-3.89-2.79-5.97-3.84
		c-3.38-1.71-10.54-4.2-8.72-9.31c1.87-5.26,8.79-1.21,11.07,1.28c3.85,4.22,6.23,9.31,10.46,13.28c-0.8-5.04-1.67-10.17-0.81-15.27
		c0.4-2.38,1.07-4.74,1.78-7.04c0.69-2.23,0.53-2.79-0.86-4.55c-6.14-7.75-8.99-16.57-5.21-26.12c1.62-4.08,4.17-8.09,7.19-11.28
		c1.18-1.25,2.7-2.27,2.63-4.16c-0.07-1.93-1.58-3.81-2.98-5c-2.76-2.34-6.72-1.59-8.53,1.61c-0.69,1.21-1,3.05-0.02,4.22
		c1.22,1.47,3.57,1,3.81-0.97c-1.95-0.25-3.05-2.69-0.67-3.33c1.91-0.51,3.25,2.1,3.45,3.62c0.46,3.66-3.8,6.03-7.03,5.17
		c-4-1.07-4.63-6.32-3.15-9.58c2-4.38,6.89-5.2,11.21-5.2c-3.21-5.65-8.69-9.5-14.63-11.87c-6.62-2.64-13.07-2.47-19.9-0.81
		c-5.95,1.45-11.73,3.95-16.42,7.96c-2.54,2.17-4.69,4.75-6.44,7.58c-1.58,2.56-3.94,6.03-3.51,9.19c3.99-4.99,7.89-9.69,13.4-13.11
		c2.5-1.55,5.24-2.79,8.13-3.41c2.07-0.44,6.34-1.27,7.79,0.91c1.31,1.96-0.63,4.19-2.27,5.14c-2.36,1.37-5.26,1.46-7.85,2.08
		c-5.77,1.38-10.44,4.5-14.84,8.36c-0.33,0.29-2.51,1.74-2.48,2.33c0.07,1.34,1.28,0.37,2,0.06c3.2-1.38,6.52-2.39,9.93-3.09
		c3.16-0.65,6.36-1.12,9.54-1.65c2.16-0.35,5.16-0.22,7.2-1c2.01-0.76,1.18-2.26,1.22-4.17c0.06-2.92,1.1-5.94,2.62-8.41
		c2.07-3.35,6.77-7.26,10.97-5.05c4.51,2.37,2.93,9.1,0.7,12.45c-1.33,2-3.13,3.67-5.24,4.83c-1.62,0.89-4.67,1.04-5.06,2.79
		c-0.26,1.21,0.62,3.6,0.9,4.78c0.34,1.43,0.72,2.84,1.06,4.27c0.8,3.37,1.56,6.76,2.22,10.16c1.27,6.57,2.08,13.34,1.21,20.02
		c-1.73,13.22-11.35,23.53-13.55,36.56c-1.08,6.38-1.19,13.49,1.38,19.53c1.08,2.54,1.58,4.34-1.59,5.18
		c-2.93,0.78-6.01,1.24-8.77,2.56c-2.68,1.28-5.04,3.67-6.41,6.32c-1.47,2.83,1.51,4.89,3.84,6c5.91,2.81,13.35,4.31,19.87,4.39
		C209.46,319.56,222.02,309.6,229.79,297.95z M234.99,300.71c-4.72,3.45-7.74,8.41-11.67,12.64c-4.05,4.35-8.69,7.98-13.8,10.99
		c-4.68,2.76-9.14,5.14-12.02,9.95c-2.42,4.04-5.25,11.72-2.47,16.18c1.83-3.9,4.48-7.71,8.29-9.89c3.03-1.73,7.92-1.26,9.13-5.14
		c0.7-2.25-0.65-3.08-0.96-5.11c-0.24-1.58,0.86-2.68,2.39-2.11c4.05,1.51,2.19,8.22,0.91,10.73c2.88,1.29,5.9,2.51,7.77,5.19
		c2.06,2.94,2.43,6.84,1.03,10.14c-2.12,5-8.67,8.47-13.51,4.81c-2.24-1.7-3.42-4.86-2.36-7.54c0.78-1.97,3.86-4.83,6.25-4.13
		c4.14,1.21-1.27,3.71-2,4.46c-1.83,1.88-0.55,4.58,1.9,4.98c2.87,0.47,5.31-2.26,5.75-4.89c0.53-3.18-1.18-6.49-3.89-8.12
		c-4.64-2.78-10.88-0.61-14.29,3.13c-5.3,5.8-3.43,13.03-1.79,19.96c1.38,5.82,3.56,11.88,9.5,14.39c1.33,0.56,3.78,0.61,4.8,1.59
		c0.97,0.93,1.06,3.03,1.37,4.24c1,3.84,2.2,7.63,4.24,11.05c3.84,6.44,9.87,11.49,16.58,14.76c-5-5.51-10.5-10.52-14.23-17.07
		c-2.9-5.09-4.43-13.32,0.8-17.6c5.1-4.16,11.81,0.76,14.77,5.13c4.17,6.17,4.56,13.72,5.94,20.81c1.13-1.68,1.47-3.77,2.2-5.62
		c0.75-1.9,1.84-3.21,1.38-5.25c-0.48-2.11-1.84-4.01-1.29-6.29c0.52-2.16,1.37-2.64,0.31-4.86c-0.83-1.74-1.99-3.44-1.98-5.44
		c0.01-2.13,1.41-3.35,2.19-5.19c0.81-1.89-0.17-3.47-0.1-5.48c0.08-2.23,1.1-4.13,2.14-6.04c-9.33-4.34-18.46-8.79-24.05-17.85
		c-1.08-1.76-5.86-8.5-2.13-9.5c2.36-0.63,5.72,1.21,7.82,2.12c-0.79-4.57-1.77-9-2.13-13.64c-0.3-3.83-0.52-8.26,1.9-11.51
		c2.05-2.74,5.72-3.18,8.16-0.64c2.28,2.37,3.05,6.26,3.62,9.37c0.83,4.48,1.08,9.06,1.66,13.58c0.28,2.23,0.6,4.46,0.96,6.68
		c0.11,0.68,0.14,4.03,0.73,4.49c1.02,0.79,0.92-0.6,0.91-1.34c-0.04-2.09-0.42-4.24-0.6-6.33c-0.4-4.61-0.86-9.24-1.01-13.86
		c-0.14-4.13,0.5-8.26-2.53-11.56C239,307.3,235.13,304.91,234.99,300.71z M254.9,344.54c2.09,0.39,3.47-13.96,3.58-15
		c0.62-6.09-1.05-15.31,3.47-20.23c4.5-4.89,9.56,0.05,10.83,4.87c1.88,7.12-0.96,13.9-2.4,20.76c1.74-0.6,8.38-3.69,8.39,0.18
		c0.01,3.67-3.25,8.27-5.26,11.15c-2.44,3.5-5.47,6.69-8.97,9.15c-1.82,1.28-3.8,2.23-5.81,3.16c-1.22,0.56-4.28,1.35-4.54,2.76
		c-0.12,0.64,0.64,1.95,0.76,2.62c0.17,0.95,0.24,1.98,0.08,2.94c-0.31,1.87-1.33,3.17-0.53,5.04c0.85,2,2.48,3.29,2.27,5.66
		c-0.18,1.99-1.53,3.38-2.36,5.08c-1.02,2.1,0.12,2.9,0.51,4.99c0.4,2.16-0.9,3.8-1.27,5.82c-0.37,2.02,0.57,3.74,1.28,5.58
		c0.76,1.98,1.27,4.05,2.18,5.98c0.98-6.23,1.74-12.68,4.41-18.46c2.39-5.18,8.35-12.36,14.88-9.96c7.65,2.81,5.54,13.81,2.37,19.09
		c-4.32,7.2-11.99,11.62-16.65,18.46c6.38-2.15,11.84-6.69,15.97-11.92c1.99-2.51,3.75-5.24,5.01-8.2c0.66-1.54,1.13-3.15,1.54-4.78
		c0.43-1.67,0.5-3.95,1.3-5.47c1.12-2.12,5.35-2.33,7.37-3.57c2.73-1.68,4.52-4.23,5.7-7.16c1.24-3.09,1.95-6.45,2.56-9.71
		c0.65-3.49,1.64-8.05,0.78-11.56c-1.35-5.56-9.18-10.27-14.66-8.56c-4.39,1.37-9.11,7.1-5.45,11.56c1.49,1.82,5.3,2.18,6.45-0.33
		c1.46-3.18-3.2-2.73-3.76-4.86c-0.89-3.37,4.28-1.86,5.63-0.83c2.44,1.86,3.18,4.94,1.79,7.71c-3.2,6.36-11.9,4.39-14.9-0.92
		c-1.85-3.28-1.94-7.35-0.04-10.63c1.79-3.09,4.98-4.59,8.14-5.9c-1.64-3.02-2.51-8.39,1.03-10.68c1.38-0.9,3.35-0.2,3.01,1.71
		c-0.36,2-2.28,2.41-1.85,4.9c0.75,4.27,6.11,3.79,9.18,5.5c1.85,1.03,3.36,2.53,4.82,4.04c1.44,1.49,2.5,3.8,4.08,5.07
		c2.26-4.01-0.64-11.27-2.63-14.83c-2.87-5.13-7.41-7.71-12.35-10.54c-5.02-2.88-9.68-6.38-13.6-10.67
		c-3.86-4.23-6.94-9.15-11.54-12.68c-0.92,1.7-1.33,3.48-2.57,5.01c-1.13,1.38-2.53,2.53-3.8,3.77c-2.7,2.62-1.96,5.98-2.04,9.52
		C257.12,327.65,255.96,336.1,254.9,344.54z M322.65,136.61c0.52,0.6,3.4-0.73,4.1-0.84c2.6-0.41,5.33,0.01,7.93,0.3
		c5.11,0.57,9.72,1.12,14.23,3.8c8.49,5.05,14.92,12.42,20.38,20.54c2.95,4.38,5.72,8.93,7.69,13.85c1.88,4.71,3.2,9.47,5.38,14.09
		c4.58,9.68,8.66,19.7,14.51,28.7c3.36,5.17,7.21,10,10.99,14.87c3.9,5.04,7.66,10.19,11.75,15.08c0.64-2.06-1.28-5.69-2.1-7.5
		c-1.27-2.8-2.97-5.35-4.96-7.69c-3.75-4.43-7.88-8.31-10.77-13.41c-3.06-5.4-5.4-11.27-7.31-17.16c-1.95-6.01-2.57-11.78-3.2-18
		c-0.26-2.57-2.38-3.78-3.98-5.64c-1.83-2.12-3.29-4.48-4.37-7.06c-0.95-2.26-4.43-9.75-2.24-12.05c2.59-2.71,9.95,6.22,11.16,8.29
		c1.33,2.26,2.02,4.79,2.37,7.38c0.19,1.43-0.04,3.13,0.31,4.51c0.38,1.51,1.45,2.26,2.59,3.21c5.11,4.3,9.77,8.8,13.42,14.43
		c3.91,6.04,7.14,12.47,10.23,18.97c2.82-8.56-1.23-18.4-4.82-26.08c-3.99-8.54-9.16-16.66-14.88-24.15
		c-5.83-7.62-14.25-14.22-22.48-19.06c-8.63-5.08-18.18-9.63-27.73-12.66c-5.24-1.66-10.69-2.73-16.2-2.82
		C329.4,130.41,325.77,132.49,322.65,136.61z M82.68,246.97c6.74-8.68,13.61-17.28,20.07-26.18c6.22-8.56,10.82-17.16,14-27.26
		c2.95-9.37,5.15-19.17,10.18-27.71c4.82-8.19,10.95-17.77,18.96-23.17c4.42-2.98,9.54-5.29,14.77-6.36
		c3.04-0.62,6.18-0.9,9.28-0.79c2.82,0.1,5.62,1.1,8.4,1.1c-3.64-6.58-11.88-7.26-18.54-6.05c-8.78,1.6-17.6,5.77-25.35,10.08
		c-8.76,4.88-17.41,10.41-24.54,17.51c-6.91,6.87-13.2,14.49-18.33,22.77c-3.09,5-5.81,10.24-8.01,15.7
		c-1.92,4.79-3.87,10.16-2.98,15.4c1.58-2.01,2.17-5.14,3.33-7.42c1.38-2.71,3-5.28,4.84-7.7c3.74-4.92,8.2-9.2,12.8-13.3
		c1.77-1.58,4.15-2.87,4.58-5.35c0.49-2.8,0.51-5.46,1.41-8.22c1.51-4.6,4.91-8.42,9.17-10.67c1.23-0.65,3.47-1.77,4.6-0.35
		c1.27,1.59-0.6,5.65-1.23,7.18c-2.28,5.54-6.06,9.43-9.71,14.01c-1.56,1.96-0.76,4.83-0.86,7.18c-0.14,3.26-0.53,6.52-1.2,9.71
		c-1.27,6.07-3.65,11.87-6.44,17.39c-2.94,5.81-6.8,11.05-10.73,16.22C87.4,235.59,83.28,240.57,82.68,246.97z M342.45,308.2
		c0.56,0.29,2.98-2.88,3.41-3.38c2.1-2.45,3.08-5.06,3.7-8.2c1.33-6.81,2.45-12.67,0.08-19.43c-2.01-5.74-5.99-10.4-9.57-15.21
		c-3.73-5.02-7.79-9.92-10.93-15.35c-3.33-5.76-4.9-12.25-6.28-18.7c-0.51-2.37-0.31-5.77-1.27-7.95s-4.48-3.32-6.17-5.1
		c-1.9-2-4.8-6.16-3.9-9.11c1.87-6.08,9.38,1.91,10.92,4.01c1.62,2.21,2.28,5.11,4.86,6.3c3.26,1.51,6.28,2.88,9.18,5.06
		c3.02,2.28,5.92,4.8,8.57,7.5c2.74,2.81,4.81,6.07,7.23,9.13c-0.23-4.91-0.74-9.84-3.28-14.17c-2.51-4.27-6.16-7.81-9.66-11.26
		c-6.88-6.79-15.84-10.65-25.25-12.44c-1.69-0.32-4.1-1.37-4.9,0.35c-0.91,1.93-0.84,5.16-1.14,7.26
		c-0.78,5.36-1.35,10.8-0.88,16.22c0.43,4.91,1.73,9.8,4.07,14.16c2.39,4.46,5.88,8.14,9.22,11.89
		c8.14,9.16,12.98,20.12,17.41,31.41c6.25-3.47,8.67,2.42,9.04,7.67C347.35,295.61,344.86,302.03,342.45,308.2z M155.6,303.62
		c0.67-0.75-0.87-4.18-1.04-5.11c-0.57-3.21-0.79-6.54-0.54-9.79c0.19-2.49,0.59-5.56,2.57-7.33c0.89-0.8,2-1.22,3.19-1.25
		c0.57-0.01,2.38,0.73,2.87,0.51c0.55-0.25,0.7-1.93,0.87-2.47c0.45-1.37,1.01-2.72,1.57-4.06c1.24-2.95,2.66-5.83,4.21-8.63
		c2.96-5.32,6.43-10.35,10.17-15.15c3.78-4.84,8.13-9.38,10.8-14.98c2.85-5.97,3.39-12.65,3.05-19.17
		c-0.17-3.22-0.57-6.41-1.04-9.59c-0.17-1.13-0.21-6.34-1.18-6.99c-1.31-0.87-5.94,0.77-7.33,1.1c-3.25,0.77-6.43,1.83-9.51,3.14
		c-6.34,2.68-11.62,6.9-16.29,11.9c-2.18,2.33-4.44,4.61-5.49,7.67c-1.25,3.64-1.82,7.51-2.38,11.3c1.41-0.26,2.87-3.83,3.64-4.87
		c1.66-2.24,3.54-4.33,5.69-6.12c1.96-1.63,4.11-2.95,6.41-4.04c2.44-1.17,5.18-1.73,7.58-2.89c1.98-0.96,2.52-3.2,3.5-5.07
		c1.21-2.33,2.66-4.49,4.8-6.07c1.62-1.2,4.08-2.43,5.9-0.88c1.67,1.43,1,3.94,0.21,5.66c-2.18,4.73-8.11,6.5-9.46,11.56
		c-1.57,5.9-2.86,11.86-5,17.6c-4.08,10.96-11,20.43-17.82,29.8c-1.71,2.36-3.75,4.77-4.63,7.6c-0.95,3.04,0.03,6.32,0.47,9.37
		c0.48,3.36,0.96,6.71,1.44,10.07C153.25,299.46,153.36,301.48,155.6,303.62z M187.89,393.17c-1.89,1.59,14.37,18.94,15.7,20.34
		c3.94,4.15,8.15,8.15,12.83,11.47c4.7,3.34,9.94,5.49,15.26,7.63c5.21,2.1,10.43,4.19,15.65,6.27c2.4,0.96,3.75,0.49,6.03-0.48
		c2.95-1.25,5.95-2.37,8.93-3.56c10.5-4.21,20.94-7.9,29.42-15.65c4.82-4.4,9.28-9.21,13.47-14.22c0.92-1.1,10.15-12.05,8.53-12.94
		c-2.51,3.62-6.08,6.36-9.43,9.16c-3.68,3.07-7.46,6.01-11.47,8.63c-7.92,5.16-16.77,9.34-25.33,13.31
		c-4.7,2.18-9.49,4.14-14.22,6.23c-2.45,1.08-3.34,0.87-5.75-0.28c-2.37-1.13-4.86-2.05-7.28-3.06
		c-9.46-3.96-18.69-8.54-27.68-13.48C203.32,407.46,195.31,400.56,187.89,393.17z M291.44,386.6c8.71,0,14.98-3.5,21.87-8.46
		c7.01-5.04,12.44-10.64,17.3-17.76c4.83-7.09,7.44-15.75,9.99-23.88c1.34-4.25,2.42-8.57,3.47-12.9c1.08-4.43,2.63-8.85,3.09-13.4
		c-7.22,6.36-15.81,10.97-24.76,14.38c4.97,7.72,8.04,16.65,6.58,25.9c-1.39,8.81-6.19,16.74-12.91,22.53
		c-6.97,6.01-15.5,9.72-24.48,11.5c-1.81,0.36-2.96,0.05-3.46,1.84c-0.64,2.28-0.53,4.79-1.25,7.13c-1.29,4.19-3.49,8.11-6.46,11.34
		c-6.35,6.88-15.53,10.25-21.92,17.1c1.74,0.09,3.39-0.98,4.86-1.78c1.97-1.07,3.96-2.1,5.88-3.25c3.82-2.29,7.4-4.93,10.71-7.9
		c3.17-2.85,6.68-5.77,8.96-9.42C291.37,395.61,291.68,391.15,291.44,386.6z M211.98,384.95c-7.58-1.92-15.32-3.44-21.96-7.82
		c-5.72-3.76-11.24-8.8-14.56-14.84c-6.37-11.57-6.44-29.08,3.89-38.34c-9.08-4.03-17.68-9.33-24.76-16.36
		c0.77,8.89,3.45,17.68,6.37,26.07c2.99,8.59,5.93,17.42,9.79,25.67c3.62,7.73,8.5,13.12,15.39,18.09c3.28,2.37,6.58,4.8,10.21,6.61
		c4.04,2.01,8.2,2.54,12.67,2.54c-0.46,4.6,0.13,9.26,2.65,13.23c2.18,3.43,5.36,6.12,8.18,9c6.58,6.72,14.31,11.22,23.18,14.34
		c-0.78-1.58-2.38-2.55-3.75-3.56c-1.78-1.3-3.48-2.72-5.24-4.05c-3.42-2.59-7.18-4.72-10.53-7.41
		C216.01,402.08,213.47,394.11,211.98,384.95z M339.42,457.06c5.9-6.05,5.09-15.72,3.86-23.37c-0.8-4.98-1.93-9.9-3.37-14.73
		c-1.49-5.01-2.86-10.28-5.38-14.89c-1.03,4.42-1.65,8.88-2.92,13.24c-1.25,4.32-2.86,8.52-4.66,12.64
		c-3.49,7.97-8.44,15.71-10.58,24.2c-1.88,7.47,0.08,15.38,6.56,20c4.85,3.46,13.02,5.74,17.54,0.54c-10.43,0-21.1-7.62-18.38-18.96
		c0.56-2.32,1.38-4.7,3.09-6.44c1.72-1.75,1.09-1.77,0.49-4.07c-0.67-2.58-0.22-5.3,1.41-7.41c1.71-2.22,3.48-3.73,3.95-6.66
		c0.18-1.13,0.34-5.71,2.81-3.67c1.67,1.37,0.4,4.48,0.03,6.11c-0.5,2.2,1.32,1.93,2.82,3.18c1.78,1.48,2.67,3.94,1.49,6.08
		c-0.86,1.56-2.67,2.56-4.46,2.2c-1.67-0.33-4.07-2.77-1.9-4.24c2.24-1.52,1.31,1.39,2.33,1.87c0.63,0.29,1.61-0.65,1.74-1.22
		c0.2-0.89-0.7-1.89-1.28-2.43c-1.62-1.49-4.22-1.6-5.73,0.15c-1.42,1.64-1.53,5.94,0.42,7.38c0.81,0.6,2.74,0.49,3.68,0.78
		c1.24,0.38,2.42,0.93,3.42,1.75C338.84,451.07,339.46,454.07,339.42,457.06z M425.71,186.08c0.76,7.12,0.55,13.91-0.63,20.97
		c-1.19,7.08-2.37,14.08-2.91,21.25c-0.51,6.87-0.64,13.21,1.31,19.89c0.95,3.26,2.15,6.46,3.4,9.61c1.05,2.65,2.2,5.6,4.51,7.42
		c-0.94-7.34-1.04-14.57,0.17-21.89c1.14-6.89,3.7-13.36,5.22-20.15c1.5-6.74,1.37-12.96-1.57-19.26
		C432.5,198.12,430.28,190.72,425.71,186.08z M69.99,265.68c3.76-6.19,6.33-12.9,7.8-19.98c1.53-7.32,0.93-14.8,0.18-22.19
		c-0.77-7.62-2.56-15.09-3.42-22.7c-0.42-3.75-0.6-7.56-0.19-11.33c0.12-1.12,1.75-5.57,0.9-6.41c-3.56,6.03-7.53,11.68-10.17,18.25
		c-1.23,3.07-1.04,6.58-1.15,9.84c-0.13,3.78,0.19,7.39,1,11.09C68.12,236.72,72.46,250.69,69.99,265.68z M159.39,474.04
		c3.92,5.67,11.62,4.01,16.66,0.96c6.78-4.1,9.62-11.24,8.2-18.98c-1.61-8.77-6.56-16.88-10.18-24.93
		c-1.93-4.28-3.73-8.63-5.1-13.13c-0.63-2.05-1.15-4.13-1.61-6.22c-0.13-0.57-0.5-4.92-1.16-5.12c-1.45-0.42-7.49,22.34-7.88,24.53
		c-0.82,4.61-1.15,9.34-0.89,14.02c0.06,1.01,1.49,10.57,3.15,9.93c0.22-0.09,0.2-1.49,0.24-1.67c0.24-1.08,0.73-2.09,1.36-3
		c1.36-1.96,3.47-3.48,5.78-4.1c2.14-0.58,3.68,0.32,4.34-2.2c0.66-2.49-0.07-5.69-3.01-6.22c-1.52-0.27-4.04,0.65-4.6,2.25
		c-0.26,0.73-0.21,1.52,0.43,2.05c1.24,1.03,1.2,0,1.62-0.62c0.39-0.58,0.08-1.34,1.29-1.09c1.11,0.23,1.39,1.61,1.15,2.52
		c-0.58,2.17-3.36,2.48-5.07,1.62c-2.09-1.05-2.99-3.51-2.09-5.67c0.47-1.13,1.43-2.05,2.41-2.73c0.47-0.33,2.15-0.79,2.36-1.41
		c0.58-1.75-1.65-4.05-0.94-6.13c1-2.95,3.18-1.06,3.41,1.07c0.25,2.27,0.83,4.07,2.22,5.91c1.59,2.09,3.28,3.59,3.49,6.38
		c0.11,1.4-0.4,2.62-0.45,3.97c-0.05,1.23-0.09,0.99,0.85,1.77c2.05,1.68,3.45,3.15,4.21,5.8c1.51,5.24,0.16,11.48-4.13,15.01
		C171.11,472.23,164.92,473.85,159.39,474.04z M273.83,155.42c3.47,2.19,8.64,5.14,8.06,9.96c-0.3,2.54-2.16,4.78-4.89,4.1
		c-2.6-0.65-4.1-3.39-5.63-5.35c-1.31,5.57,4.69,11.47,1.96,17c-0.96,1.94-3.19,2.3-4.79,0.8c-1.56-1.47-1.56-3.97-2.09-5.9
		c-1.11,1.48-2.55,2.45-2.19,4.38c0.38,2.08,1.84,4.02,0.93,6.23c-0.71,1.7-2.89,2.41-4.48,1.4c-1.7-1.08-1.53-3.46-1.62-5.22
		c-2.35,1.5-4.37,3.62-5.18,6.34c6.33,1.44,12.81,2.9,18.4,6.34c1.99-4.41,4.11-8.8,7.17-12.59c2.78-3.45,6.16-6.41,8.65-10.1
		c4.89-7.26,6.04-16.47,4.35-24.94C286.32,150.55,280.1,153.06,273.83,155.42z M207.85,147.71c-0.48,7.31,0.84,15.28,3.45,22.13
		c2.68,7.04,8.15,11.76,12.55,17.66c1.06,1.41,2.03,2.88,2.86,4.45c0.37,0.71,0.94,2.89,1.7,3.12s2.89-1.44,3.6-1.76
		c1.54-0.69,3.14-1.22,4.75-1.7c1.77-0.52,3.55-0.99,5.33-1.47c0.79-0.21,3.41-0.44,3.92-1.11c1.28-1.69-3.31-5.62-4.79-6.03
		c0.09,1.75-0.06,4.14-1.8,5.11c-1.51,0.84-3.47,0.03-4.17-1.49c-0.85-1.84,0.19-3.89,0.71-5.65c0.7-2.34-0.24-3.85-1.96-5.48
		c-0.37,2.14-0.34,4.9-2.15,6.44c-1.77,1.51-4.19,0.81-5.13-1.22c-2.6-5.66,4.87-11.49,2.51-16.87c-1.46,2.07-3,4.93-5.64,5.63
		c-2.97,0.79-4.93-1.84-5.05-4.54c-0.23-5.24,5.31-7.84,9.08-10.19C220.89,152.85,214.09,150.95,207.85,147.71z M167.05,456.94
		c0.37-1.46,1.04-3.92,3.08-3.52c1.73,0.33,1.87,2.65,1.59,4.01c-0.7,3.47-4.16,5.71-7.62,5.06c-7.96-1.5-10.06-12.67-10.5-19.14
		c-0.66-9.71,1.74-19.96,4.89-29.1c1.66-4.83,3.84-9.49,5.78-14.22c0.92-2.26,1.82-4.52,2.72-6.79c1.18-2.96,0.82-3.46-1.22-5.74
		c-10.61,17.66-17.89,39.63-16.83,60.37c0.38,7.58,2.22,20.25,11.37,22.09c6.9,1.39,15.1-4.07,15.81-11.22
		c0.38-3.86-1.61-10.08-6.44-9.55c-2.11,0.23-3.84,1.47-4.51,3.51C164.53,454.55,164.76,456.64,167.05,456.94z M59.86,216.04
		c-1.02,0.04-2.02,6.01-2.27,6.9c-1.24,4.33-2.15,8.66-2.79,13.13c-1.33,9.37-3.62,19.12-3.73,28.6c-0.03,2.84,0.06,6.68,1.88,9.05
		c2.09,2.72,6.6,1.92,8.7-0.45c2.48-2.81,3.48-7.9,4.06-11.46c0.73-4.48,0.67-9.05,0.24-13.56
		C64.91,237.37,61.44,226.85,59.86,216.04z M272.67,245.85c-3.95,2.81-7.52,5.9-9.5,10.44c-1.15,2.63-0.61,4.61-0.31,7.34
		c0.31,2.85,0.09,5.73-0.5,8.52c-1.04,4.87-4.6,9.39-4.84,14.34c-0.21,4.28,2.56,7.69,6.87,8.14c4.65,0.49,8.27-4.4,6.57-8.74
		c-0.68-1.73-2.24-3.38-4.25-3.22c-1.87,0.15-3.91,2.35-3.15,4.3c0.69,1.76,2.89,1.74,3.13-0.07c0.13-0.97-0.53-2.9,1.6-1.99
		c1.3,0.56,1.03,2.22,0.58,3.29c-0.77,1.87-2.78,2.77-4.76,2.37c-5.96-1.23-2.97-8.64,1.07-10.19c6.35-2.44,9.16,3.28,9.84,8.53
		c4.1-4.29,8.1-12.58,7.57-18.6c-1.87,1.16-6.48,4.33-8.8,2.65c-1.77-1.29,0.85-6.55,1.17-8.36
		C276.08,258.39,275.69,251.5,272.67,245.85z M228.56,245.99c-2.22,1.52-2.93,7.13-3.27,9.49c-0.6,4.11-0.51,8.66,0.66,12.67
		c0.53,1.82,2.66,5.4-0.73,5.09c-2.23-0.2-4.3-1.97-6.25-2.94c-0.46,3.3,1.3,6.66,2.54,9.61c1.16,2.76,2.31,6,4.79,7.88
		c0.7-4.53,3.35-8.73,8.63-7.52c3.32,0.76,6.96,4.92,4.38,8.19c-1.25,1.58-3.74,2.57-5.72,2.04c-1.88-0.51-3.55-2.9-2.16-4.73
		c0.38-0.51,1.5-1.25,2.2-0.97c1.25,0.5,0.36,0.9,0.38,1.72c0.03,1.27,0.88,2.5,2.33,1.4c2.92-2.22-3.26-7.98-6.36-3.31
		c-2.46,3.69-0.04,7.76,3.6,9.26c4.58,1.89,8.86-1.21,9.32-6.03c0.46-4.79-2.81-9.23-4.13-13.65c-0.84-2.81-1.38-5.76-1.35-8.7
		c0.03-2.67,0.68-4.89-0.25-7.48C236.01,254.77,232.73,246.49,228.56,245.99z M442.36,221c-1.06,0.24-1.09,4.75-1.25,5.65
		c-0.77,4.24-2.41,8.3-3.46,12.48c-2.17,8.57-3.14,17.77-1.35,26.49c0.95,4.62,5.42,15.98,11.78,9.68
		c2.58-2.55,1.57-7.46,1.38-10.71c-0.27-4.59-0.87-9.14-1.53-13.69C446.48,240.84,445.01,230.84,442.36,221z M335.21,457.2
		c2.03-2.75-0.09-6.82-3.31-7.29c-3.64-0.54-6.04,2.98-6.8,6.08c-1.79,7.33,4.49,13.65,11.56,14.16
		c9.73,0.7,13.32-10.02,14.47-17.86c1.51-10.29,0.22-20.96-2.43-30.96c-3.01-11.37-7.6-22.39-13.25-32.7
		c-1.54,1.98-2.36,2.44-1.18,4.73c1.18,2.28,2.32,4.57,3.35,6.92c2.05,4.64,3.86,9.4,5.41,14.23c3.07,9.52,5.47,20.04,4.76,30.11
		c-0.44,6.27-2.96,16.52-10.38,17.93c-3.26,0.62-7.59-1.14-8.52-4.6c-0.41-1.54,0.32-4.29,2.45-3.87
		C333.38,454.49,332.6,457.32,335.21,457.2z M250.8,187.95c1.66-2.54,3.08-5.12,5.11-7.4c2.16-2.42,4.53-4.68,6.4-7.34
		c3.28-4.67,4.69-10.4,5.35-15.99c-1.64,0.32-3.28,0.64-4.92,0.97c-1.19,0.23-3.71,0.22-4.65,0.96c-0.88,0.69-0.8,2.13-0.97,3.16
		c-0.29,1.72-0.64,3.45-1.08,5.14c-0.7,2.68-1.7,5.26-2.76,7.81c-0.48,1.17-1.33,4.09-2.87,4.29c-1.92,0.25-3.13-4.39-3.68-5.71
		c-1.36-3.26-2.45-6.63-3.17-10.09c-0.27-1.3-0.46-2.61-0.64-3.92c-0.19-1.33,0-1.3-1.09-1.85c-1.15-0.58-3.13-0.61-4.39-0.88
		c-1.84-0.39-3.69-0.79-5.53-1.18c0.76,6.71,3,12.44,7.19,17.77C242.88,178.52,247.97,182.39,250.8,187.95z M329.12,396.66
		c-1.42,1.73-2.7,2.87-2.74,5.2c-0.05,2.69,0.16,5.35-0.2,8.03c-0.65,4.82-2.71,9.1-5.66,12.92c-6.24,8.06-12.04,15.72-14.96,25.67
		c-0.63,2.14-1.1,4.3-1.59,6.47c-0.46,2.03-1.23,4.27-0.78,6.37c1.15,5.42,5.59,0.5,6.94-2.14c2.4-4.69,3.77-9.93,5.79-14.79
		c2.04-4.92,4.97-9.39,7.17-14.24C327.64,420.06,330.7,407.75,329.12,396.66z M171.95,394.57c-2.97,11.66,1.43,24.51,6.29,34.96
		c4.28,9.22,8.69,18.24,12.3,27.75c0.76,2.01,2.04,6.39,4.32,7.25c3.85,1.44,2.63-6.12,2.34-7.79c-0.97-5.62-2.44-11.25-4.65-16.52
		c-2.27-5.42-5.79-9.46-9.73-13.73c-4.08-4.43-7.34-9.3-8.42-15.33c-0.56-3.1-0.68-6.42-0.3-9.55c0.16-1.3,0.74-2.74,0.33-4.04
		C174.05,396.34,172.77,395.5,171.95,394.57z M146.38,233.68c-8.35,4.7-11.35,14.31-11.76,23.35c-0.25,5.61,1.09,11.05,3.18,16.22
		c1.15,2.84,2.46,5.61,3.68,8.42c1.07,2.46,1.84,5.14,3.43,7.33c0.97-1.4,0.15-4.13,0.04-5.69c-0.14-1.96-0.23-3.92-0.3-5.88
		c-0.17-4.84-0.05-9.68,0.12-14.52C145.1,253.15,145.4,243.39,146.38,233.68z M149.85,129.02c-0.93-2.72-8.76,1.44-10.54,2.12
		c-4.15,1.58-8.25,3.26-12.25,5.19c-7.96,3.84-15.68,8.47-22.64,13.94c-7.03,5.54-12.06,12.47-17.19,19.71
		c-2.51,3.53-5.09,6.62-6.41,10.81c-1.28,4.07-2.53,8.7-1.74,12.99c7.15-14.98,16.39-29.03,28.69-40.32
		c5.77-5.3,12.08-9.99,18.76-14.08C133.87,134.88,141.76,131.9,149.85,129.02z M355.71,289.33c4.2-9.49,8.83-19.07,10.25-29.46
		c0.64-4.68,0.44-9.63-1.97-13.82c-1.02-1.77-2.41-3.25-3.67-4.84c-1.4-1.76-2.62-3.76-4.44-5.13c0.64,9.05,1.26,17.96,0.94,27.04
		c-0.15,4.34-0.42,8.68-0.95,12.99C355.32,280.52,354.42,284.96,355.71,289.33z M178.18,401.5c-0.42,5.66-0.05,10.52,2.56,15.69
		c2.12,4.2,5.42,7.58,8.34,11.21c3.2,3.98,6.05,8.27,8.18,12.91c2.2,4.79,2.65,9.93,4.51,14.77c1.64-1.79,4.85-3.99,5.35-6.49
		c0.48-2.44-0.97-6.25-1.71-8.56c-1.77-5.53-4.85-10.54-9.03-14.58c-3.84-3.7-9.07-6.08-12.25-10.44c-1.72-2.37-2.68-5.21-3.31-8.05
		C180.28,405.61,180.14,403.17,178.18,401.5z M321.91,404.87c-2.14,1.36-2.32,3.79-3.12,5.99c-0.98,2.72-2.44,5.14-4.53,7.15
		c-4.01,3.87-9.01,6.3-12.64,10.64c-3.36,4.02-5.74,8.82-7.09,13.87c-0.56,2.09-1.71,5.07-1.22,7.24c0.6,2.68,4.01,4.96,5.54,7.21
		c1-5.17,1.91-10.39,3.9-15.29c1.74-4.28,4.17-8.24,6.8-12.02C314.82,422.07,323.35,415.23,321.91,404.87z M240.54,137.93
		c2.42,1.49,4.79,3.43,7.47,4.45c2.99,1.13,5.43-0.52,7.93-2.02c0.95-0.57,3.06-1.22,3.66-2.14c0.47-0.73,0.09-1.54-0.13-2.35
		c-0.75-2.87-1.51-5.8-2.66-8.54c-1.03-2.47-2.36-4.98-4.3-6.86c-2.14-2.07-3.41-1.32-5.21,0.82
		C243.4,125.9,241.85,132.19,240.54,137.93z M420.04,182.97c1.65-0.93-5.88-14.37-6.37-15.17c-4.6-7.47-11.2-13.91-17.85-19.56
		c-6.53-5.55-13.78-10.23-21.54-13.86c-4.1-1.92-8.33-3.56-12.66-4.87c-2.35-0.71-4.72-1.32-7.12-1.82
		c-1.42-0.3-2.82-0.93-3.67,0.59c6.85,3.42,14.28,5.61,21.15,9.08c6.58,3.33,12.87,7.21,18.68,11.74
		C402.49,158.34,412.23,170.21,420.04,182.97z M236.78,124.61c-0.86-8.49-2.96-16.75-5.69-24.82c-1.33-3.92-2.82-7.79-4.6-11.53
		c-0.34-0.71-2.39-6.15-3.51-6.19c-0.75-0.02,0.22,9.41,0.26,9.68c0.8,5.98,3.16,11.92,3.01,17.99c-0.07,2.94-0.94,5.48-2.33,8.04
		s-0.16,2.2,2.04,3.09c1.08,0.44,1.84,0.98,2.58,1.9c0.35,0.44,0.91,1.94,1.47,2.05c0.55,0.11,1.96-0.89,2.55-1.02
		C234.01,123.49,235.54,123.79,236.78,124.61z M278.1,80.05c-1.05-0.11-2.22,4.76-2.58,5.64c-1.63,4.03-3.75,7.84-5.52,11.81
		c-3.69,8.25-5.41,17.19-4.67,26.23c1.13-0.21,2.33-0.07,3.4,0.34c0.43,0.16,1.23,0.94,1.71,0.8c0.48-0.14,0.91-1.38,1.14-1.73
		c0.61-0.95,1.19-1.7,2.23-2.24c1.75-0.91,4-0.17,3.02-2.72c-0.79-2.05-1.97-3.77-2.44-5.98c-1.12-5.23,0.76-10.35,1.87-15.41
		C277.45,91.29,277.76,85.66,278.1,80.05z M254.43,239.21c0.8-3.48,1.08-7.1,1.63-10.63c0.55-3.52,1.01-7.04,0.93-10.62
		c-0.08-3.43-0.69-6.73-1.88-9.96c-0.67-1.82-1.91-5.92-4.4-5.93c-2.38-0.01-3.79,3.71-4.33,5.51c-1.01,3.34-1.16,7.07-1.21,10.54
		c-0.05,3.77,0.26,7.55,1.01,11.25c0.65,3.21,1.27,7.24,2.84,10.13c1.45-0.99,0.6-2.72,0.33-4.22c-0.4-2.19-0.93-4.41-0.91-6.65
		c0.01-1.3,0.64-7.97,2.77-8.25c2.86-0.37,3,7.35,2.94,8.7c-0.1,2.2-0.48,4.38-0.85,6.55C252.96,237.64,252.63,238.08,254.43,239.21
		z M238.54,205.62c-2.87,1.71-6.75,2.95-8.05-1.34c-0.34-1.11-0.38-2.54,0.56-3.4c0.65-0.59,2.81-1.11,3.11,0.19
		c0.28,1.19-1.54,1.03-1.29,2.42c0.34,1.94,3.02,1.42,3.75,0.21c1.49-2.48-0.94-5.81-3.48-5.99c-8.25-0.57-9.74,11.82-8.88,17.5
		c0.62,4.06,2.41,7.85,4.72,11.22c2.19,3.18,5.44,7.35,8.86,9.29c-2.48-5.06-5.81-10.08-6.22-15.85c-0.16-2.34,0.15-4.93,1.7-6.79
		c2.01-2.4,4.13-1.85,6.88-1.63C239.64,209.51,239.09,207.56,238.54,205.62z M152.36,201.14c0.61,0.17,2.3-5.03,2.63-5.74
		c1.96-4.17,4.79-7.64,7.55-11.29c5.58-7.38,10.5-16.27,11.79-25.47c-3.25,1.91-5.98,5.66-8.42,8.46c-2.94,3.37-5.6,6.94-8.06,10.67
		c-2.25,3.42-4.93,7.06-6.07,11.05C150.64,192.86,151.89,197.1,152.36,201.14z M252.55,54.79c-0.25,4.65,0.05,9.31,0.16,13.96
		c0.05,2.14,0.15,4.28,0.17,6.41c0.02,1.73-0.47,4.41,0.19,6.07c0.51,1.28,1.52,1.43,2.6,2.15c1.66,1.1,2.52,2.75,3.33,4.51
		c1.84,4.04,3.08,8.34,4.33,12.59c1.85-2.97,2.01-7.92,2.01-11.29c0-3.93-0.32-8.17-1.25-12c-0.51-2.11-2.12-6.35-4.92-6.17
		c-2.04,0.13-4.05,4.82-1.58,5.53c1.83,0.52,0.94-1.49,1.38-2.2c0.59-0.94,1.71-0.35,2.18,0.51c1.29,2.39-1.44,4.77-3.69,4.39
		c-2.98-0.5-4.24-4.31-3.55-6.92c1.04-3.88,4.61-3.66,7.81-3.09C260.56,64.22,257.05,57.6,252.55,54.79z M326.21,159.96
		c-1.78,0.2,3.81,13.02,4.43,14.29c2.34,4.79,5.34,9.05,8.45,13.35c1.53,2.12,2.98,4.29,4.31,6.54s2.26,4.76,3.72,6.93
		c0.83-1.05,0.6-4.09,0.75-5.32c0.23-1.89,0.87-3.92,0.69-5.84c-0.33-3.47-3.97-7.11-5.89-9.87
		C337.77,173.06,332.57,165.7,326.21,159.96z M247.81,55.15c-0.94-0.39-3.85,4.13-4.38,4.77c-2.51,3.08-4.71,6.26-5.69,10.18
		c2.88-1.62,6.7-2.33,8.52,1.2c1.12,2.19,0.56,5.57-1.4,7.15c-2.1,1.7-5.76,0.62-5.67-2.36c0.03-0.93,0.77-2.84,2.06-2.13
		c0.84,0.46-0.02,1.86,0.86,2.44c2.05,1.34,2.03-3.9,0.41-4.98c-2.78-1.84-5.26,3.15-5.95,5.11c-2.33,6.57-1.17,15.3,1.16,21.71
		c1.13-3.91,2.28-8.04,4.27-11.63c0.84-1.51,1.9-2.85,3.44-3.69c1.08-0.59,1.85-0.54,2.36-1.58c0.6-1.23,0.01-4.81,0.01-6.19
		c0-2.16,0-4.32,0-6.48C247.81,64.16,247.81,59.65,247.81,55.15z M259.89,118.3c1.22-4.79,1.45-8.75-1.11-13.04
		c-1.38-2.32-5.47-8.8-8.47-7.67c-3.47,1.3-7.39,5.53-9.38,8.58c-2.52,3.87-0.94,8.2-0.37,12.47c1.97-3.33,4.37-7.56,8.48-8.46
		C253.97,109.11,257.78,114.71,259.89,118.3z M352.38,195.46c-1.19,0.15-0.98,6.76-1.03,7.76c-0.24,5,0.34,9.77,1.78,14.57
		c1.39,4.62,3.29,9.06,5.81,13.19c1.36,2.23,2.85,4.38,4.21,6.6c1.07,1.75,1.91,3.81,3.47,5.19
		C364.33,226.58,359,210.35,352.38,195.46z M305.54,236.52c-1.87,0.9-0.68,4.47-0.34,5.95c0.72,3.07,2.15,5.79,3.81,8.45
		c3.38,5.43,7.57,10.29,11.43,15.37c3.75,4.94,7.35,10.09,9.92,15.76c0.42,0.93,4.9,13.79,4.76,13.86c0.69-0.35-0.11-4.1-0.16-4.74
		c-0.27-2.93-0.75-5.79-1.53-8.63c-1.57-5.74-3.86-11.34-6.93-16.45c-3.13-5.22-7.25-9.25-11.44-13.59
		c-2.06-2.14-3.91-4.44-5.46-6.98C307.88,242.65,306.99,239.51,305.54,236.52z M166.3,358.86c-2.55,0.57,0.93,11.84,1.21,13.02
		c0.68,2.78,1.6,5.67,1.7,8.54c0.05,1.33-0.21,2.6,0.4,3.84c0.52,1.05,1.6,1.97,2.34,2.85c7.74,9.15,15.46,18.29,25.12,25.51
		c0.38-1.73-2.94-4.27-3.95-5.43c-1.9-2.2-3.77-4.43-5.56-6.72c-3.19-4.1-6.13-8.43-8.73-12.93
		C173.59,378.48,170.45,368.43,166.3,358.86z M251.62,341.79c1.37,0,2.19-18.17,2.32-20.08c0.27-3.92,0.44-7.86,0.15-11.78
		c-0.15-2.03-0.18-8.14-2.49-9.13c-4.63-1.99-4.82,13.33-4.87,15.18c-0.2,7.76-0.44,15.69,1.79,23.22
		c1.28-1.64-0.98-9.51,1.07-10.45c1.65-0.76,1.34,2.86,1.38,3.66C251.08,335.53,251.13,338.7,251.62,341.79z M180.6,271.7
		c-4.74,4.23-6.67,10.4-8.63,16.24c-1.18,3.51-2.45,6.98-3.13,10.63c-0.2,1.09-1.7,6.17-0.33,6.93c1.64-2.65,3.38-5.33,6.04-7.08
		c2.69-1.77,5.81-2.05,8.93-2.31C180.08,288.45,180.21,279.9,180.6,271.7z M279.39,208.35c1.38,15.24-8.65,26.71-19.75,35.73
		c1.56,1.21,2.71,2.96,4.6,2.03c1.98-0.98,3.99-2.32,5.75-3.66c3.55-2.71,7-6.03,9.41-9.82c2.37-3.74,3.4-8.25,3.37-12.66
		C282.73,216.93,282.44,210.12,279.39,208.35z M148.06,195.11c-1.39-0.28-5.09,12.34-5.55,13.74c-1.54,4.63-2.87,9.33-3.95,14.08
		c-1.13,4.94-2.48,10.17-2.48,15.26c4.6-5.74,8.77-12.65,11.25-19.59C149.92,211.35,148.86,202.61,148.06,195.11z M239.88,248.46
		c0.65-0.71,3.23-2.62,3.4-3.63c0.15-0.86-2.95-2.58-3.67-3.13c-3.43-2.64-6.88-5.39-9.79-8.6c-6.28-6.91-8.88-15.23-8.88-24.44
		C212.33,224.41,227.21,240.83,239.88,248.46z M266.28,233.12c1.17,0.93,6.96-10.08,7.44-11.01c3.2-6.16,4.14-14.17,0.21-20.3
		c-1.68-2.62-6.1-5.71-9.12-3.14c-1.19,1.01-2.02,3.53-1.15,4.95c0.81,1.32,3.77,1.53,3.54-0.56c-0.11-0.98-2.15-2.56,0.13-2.69
		c1.41-0.08,2.4,1.51,2.54,2.72c0.2,1.8-1.05,3.69-2.71,4.32c-2.36,0.89-4.01-0.51-5.46-2.15c-0.32,1.7-0.99,3.42-0.83,5.17
		c5.63-2.18,9.95,1.7,10.05,7.4C271,223.22,268.47,228.33,266.28,233.12z M367.02,163.9c-4.17-6.28-8.97-12.38-15.41-16.47
		c-1.72,3.45-3.58,6.83-5.6,10.11c4.86,1.65,6.92,4.87,8.23,9.66C358.2,165.17,362.69,164.69,367.02,163.9z M134.07,163.24
		c2.56,0.58,5.12,1.18,7.68,1.76c1.02,0.23,2.04,0.49,3.06,0.73c0.34,0.08,0.78,0.3,1.14,0.23c0.79-0.14,0.3,0.08,0.8-0.71
		c1.08-1.69,1.38-3.46,2.9-4.96c1.46-1.44,3.33-2.39,5.31-2.87c-2.08-3.61-3.71-7.06-5.2-10.95
		C143.29,150.76,138.46,156.96,134.07,163.24z M319.88,271.87c0.26,7.65,0.5,15.58-2.31,22.85c6.14,0.74,11.13,4.11,15.07,8.75
		c0.19-2.87-1.01-5.76-1.82-8.46c-0.87-2.9-1.87-5.75-2.98-8.57C325.82,281.32,323.65,275.98,319.88,271.87z M309.56,407.91
		c1.05,0.79,15.89-15.67,16.4-16.23c1.88-2.08,4.43-4.28,5.8-6.72c1.07-1.91,0.07-4.83,0.13-6.96c0.09-2.92,0.84-5.65,1.68-8.42
		c0.43-1.4,2.43-5.88,1.6-7.33c0.12,0.2-1.95,3.73-2.25,4.36c-0.98,2.04-1.95,4.08-2.91,6.13c-1.85,3.99-3.68,7.99-5.95,11.76
		c-2.32,3.86-4.94,7.51-7.23,11.39C314.5,399.85,311.51,403.75,309.56,407.91z M195.68,237.23c-1.77,1.29-2.33,4.83-3.35,6.73
		c-1.34,2.49-2.98,4.79-4.84,6.91c-3.58,4.09-7.79,7.59-10.92,12.06c-3.04,4.34-5.3,9.2-7.16,14.15c-1.86,4.95-4.09,11.17-3.5,16.53
		c0.9-0.29,1.24-3.83,1.45-4.55c0.77-2.57,1.74-5.07,2.89-7.49c2.54-5.33,5.94-10.2,9.4-14.96
		C186.27,257.49,194.97,249.05,195.68,237.23z M263.24,342.38c3.33-6.01,5.73-12.7,6.48-19.55c0.28-2.53,1.31-12.79-3.09-13.16
		c-4.39-0.36-4.57,9.88-4.73,12.33c-0.23,3.67-0.45,7.35-0.94,11c-0.09,0.7-1.69,7.89-1.17,8.08c0.95,0.36,2.73-9.95,4.65-7.91
		C266.14,334.99,260.81,341.22,263.24,342.38z M119.67,201.33c0.91,0.7,3.55-2.51,4.08-3.15c2.47-2.95,2.69-5.96,3.21-9.61
		c0.46-3.22,1.92-6.37,4.23-8.69c2.4-2.41,5.33-2.95,8.59-3.28c-2.8-3.3-5.16-6.93-7.34-10.66
		C124.76,176.12,122.22,189.13,119.67,201.33z M95.43,207.01c-2.4,0.84-4.25,2.85-6.11,4.48c-1.89,1.66-4.3,3.28-5.48,5.57
		c-1.15,2.24-1.08,5.28-1.32,7.74c-0.3,3.02-0.95,6.18-0.46,9.21c3.91-3.57,7.21-7.72,10.34-11.97
		C95.59,217.71,95.67,212.27,95.43,207.01z M161.59,357.2c-7.9-1.03-9.01-10.98-14.59-14.97c1.13,5.94,3.73,11.53,6.19,17.01
		c2.38,5.33,4.99,10.58,7.99,15.59c0.6,1.01,2.56,5.34,3.79,5.43c0.95,0.07,0.24-4.5,0.09-5.38c-0.5-3.05-1.7-5.85-2.55-8.8
		c-0.39-1.34-0.72-2.72-0.87-4.12C161.47,360.4,161.85,358.77,161.59,357.2z M242.6,143.03c-2.81-2.54-9.71-1.12-12.97-0.52
		c-5.2,0.96-10.11,3.06-15.32,3.98C221.2,151.55,240.64,155.23,242.6,143.03z M404.96,206.88c-0.14,4.75-0.17,9.96,2.67,13.97
		c2.94,4.14,6.64,7.95,10.74,10.94c0-2.66-0.36-5.28-0.65-7.92c-0.23-2.13-0.08-4.54-1.05-6.51
		C414.55,213.03,408.94,209.34,404.96,206.88z M248.18,28.84c-0.31-0.14-2.81,9.38-3.3,10.61c-1.36,3.4-3.79,6.26-4.97,9.74
		c-1.25,3.68-1.95,7.44-3.85,10.89c-1.98,3.59-5.05,6.21-8.27,8.67c1.95,0.83,3.8,1.85,5.54,3.06c1.89-8.03,6.55-14.21,12.12-20.15
		c1.07-1.14,2.15-2.09,2.51-3.67c0.45-1.96,0.08-4.29,0.08-6.29C248.04,37.41,248.18,33.12,248.18,28.84z M241.25,342.91
		c-1.58-6-2.56-12.13-3.09-18.31c-0.17-2-0.89-15.91-4.77-13.17c-3.97,2.8-2.39,11.85-1.75,15.72c0.47,2.82,1.22,5.59,2.2,8.27
		c0.21,0.57,3.11,6.49,3.15,6.41c0.61-1.21-0.99-3.9-1.37-5.07c-0.37-1.13-1-4.72,1.09-2.93
		C237.28,334.33,240.08,343.63,241.25,342.91z M361.56,176.56c1.23,0.58,2.75,0.37,4.04,0.85c1.21,0.45,2.28,1.19,3.23,2.04
		c1.99,1.8,3.48,4.33,4.22,6.9c0.82,2.87,0.43,5.97,1.65,8.74c1.16,2.63,3.43,4.55,5.62,6.29c0-5.61-2.28-11.76-4.1-17.01
		c-2.04-5.89-4.54-11.63-7.43-17.15C366.69,170.56,364.34,173.76,361.56,176.56z M284.68,147.13c-0.04-0.97-7.22-2.07-8.32-2.36
		c-3.37-0.89-6.75-1.73-10.17-2.41c-1.96-0.38-5.7-1.35-7.5,0.12c-1.76,1.44,0.49,4.5,1.76,5.69c1.71,1.61,4.01,2.4,6.28,2.77
		C272.95,151.95,279.07,149.57,284.68,147.13z M271.85,388.99c-9.63,0.65-11.36,11.87-10.47,19.43
		C268.71,406.42,277.16,396.51,271.85,388.99z M228.58,388.98c-2.35,3.81-1.33,9.16,1.17,12.63c1.07,1.48,7.77,8.11,9.39,6.33
		c0.83-0.91,0.12-4.69,0.05-5.77c-0.12-2.13-0.42-4.24-1.32-6.2C236.16,392.24,232.74,389.36,228.58,388.98z M352.8,343.99
		c-2.3,2.77-4.03,6.01-6.68,8.49c-1.23,1.14-2.53,2-4.06,2.68c-1.53,0.69-2.03,0.67-2.13,2.33c-0.24,3.74-0.44,7.04-1.66,10.64
		c-1.16,3.4-2.77,7.15-1.83,10.81c4.15-4.44,6.55-10.74,9.13-16.16C348.34,356.94,351.8,350.43,352.8,343.99z M180.42,171.3
		c7.75-2.83,16.2-2.81,24.25-1.5c-2.49-4.5-4.99-8.99-7.48-13.49C191.57,161.28,185.75,166.02,180.42,171.3z M295.96,169.77
		c7.95-1.28,16.28-1.28,23.94,1.46c-4.92-5.51-11.03-9.73-16.84-14.23C300.68,161.25,298.32,165.51,295.96,169.77z M269.9,136.81
		c0.94,3.32,5.15,4.81,8.07,5.73c2.46,0.77,9.43,3.16,10.73,0.19c1.54-3.52-2.3-7.25-5.23-8.54
		C278.56,132.03,274.41,135.01,269.9,136.81z M253.23,31.32c-0.71,0.09-0.86,13.55-0.72,15.02c0.22,2.29,1.9,3.64,3.36,5.24
		c1.78,1.95,3.46,4.02,5.12,6.07c3.33,4.13,5.24,8.27,6.98,13.25c1.53-0.63,3.06-1.26,4.59-1.89c-5.29-4.38-9.31-10.18-11.2-16.86
		c-0.99-3.49-2.57-6.3-4.26-9.48C255.19,39.08,254.24,35.22,253.23,31.32z M299.65,379.12c4.46-1.46,9.07-3.46,12.36-6.9
		c1.53-1.6,2.75-3.48,3.32-5.64c0.38-1.44,1.05-4.77-0.16-6c-2.13-2.18-7.3,2.84-8.12,4.57
		C304.78,369.89,302.9,374.92,299.65,379.12z M186.32,358.94c-1.64,4.5-1.2,9.49,1.99,13.2c1.65,1.91,3.82,3.25,6.03,4.41
		c1.62,0.85,4.52,2.81,6.43,2.61c-2.86-3.42-4.67-7.7-6.46-11.74C192.5,363.33,190.39,361.01,186.32,358.94z M162.86,351.96
		c-0.65-2.75-1.78-5.35-2.7-8c-0.89-2.58-1.9-3.66-4.15-5.22c-2.2-1.53-4.41-3.06-6.45-4.8c-2.06-1.76-3.56-4.07-5.67-5.76
		c0.26,2.28-0.1,6.03,1.67,7.74c1.91,1.85,4.07,2.78,5.71,5.04C154.01,344.73,157.23,352.03,162.86,351.96z M187.05,355
		c0.43-3.57,0.96-8.03-2.31-10.47c-1.12-0.83-3-1.83-4.42-1.96c-1.89-0.18-2.46,1.11-2.95,2.74c-1.1,3.64-0.04,7.71,2.49,10.52
		c0.9,1.01,2.49,2.76,3.66,1.61c0.56-0.56,0.29-1.53,1.04-2.1C185.26,354.81,186.23,354.94,187.05,355z M261.43,235.29
		c1.03,0.35,3.16-5.67,3.49-6.48c1.46-3.56,4.18-10.16,1.69-13.86c-2.97-4.42-6.04,4.23-6.58,6.15c-0.72,2.58-1.08,5.25-1.37,7.91
		c-0.09,0.85-0.3,6.99-0.55,7.11c1.74-0.84,1-4.82,2.7-5.48C262.94,229.79,261.63,234.47,261.43,235.29z M212.08,143.69
		c6.2-0.84,14.18-2.13,18.74-6.89c-1.52-1.26-4.12-2.01-5.94-2.72c-2.3-0.9-4.05-0.54-6.27,0.48c-1.99,0.91-3.69,2.14-5.22,3.7
		C211.47,140.21,211.41,141.13,212.08,143.69z M206.67,135.37c1.39,0.71,2.39,1.96,3.42,3.09c2.35-2.27,1.6-6.03,0.82-8.82
		c-0.36-1.27-0.81-3.38-1.68-4.41c-0.81-0.95-1.28-0.59-2.56,0.03c-4.96,2.43-9.4,11.13-3.28,14.73
		C204.07,138.21,204.94,136.36,206.67,135.37z M318.7,357.36c3.14-2.51,5.34-6.71,4.7-10.8c-0.18-1.16-0.73-3.67-2.07-3.96
		c-1.05-0.23-3.47,1.03-4.38,1.45c-3.07,1.41-3.72,4.2-3.64,7.37c0.02,0.83-0.09,3.86,0.55,4.33c0.53,0.39,1.83-0.2,2.38-0.12
		C317.34,355.79,317.98,356.57,318.7,357.36z M244.82,233.81c0.96-0.41-1.3-8.13-1.47-8.97c-0.5-2.38-2.85-12.21-7.12-10.06
		c-5.22,2.64,3.14,18.1,5.88,20.07c-0.17-0.82-1.8-4.53-0.63-5.06C242.88,229.17,244.16,233.04,244.82,233.81z M296.99,139.73
		c2.22-2.52,3.67-4.94,2.33-8.31c-1.07-2.69-3.1-4.87-5.74-6.09c-2.76-1.27-2.87,0.82-3.67,3.14c-1.29,3.73-1.35,6.4,0.64,9.75
		c1.04-1.13,2.3-3.16,3.97-2.34C295.75,136.49,296.49,138.55,296.99,139.73z M166.19,224.62c-0.37,5.35-3.05,10.08-5.36,14.8
		c1.73-1.55,3.65-2.94,5.83-3.78c0.83-0.32,1.7-0.56,2.57-0.73c0.67-0.12,2.13,0.06,2.69-0.36c1.07-0.81,1.31-4.14,1.53-5.38
		c0.45-2.53,0.68-5.16,0.28-7.71C171,221.88,168.56,223.3,166.19,224.62z M304.05,328.66c1.52,2.45,3.06,4.89,4.2,7.54
		c1.12,2.61,1.27,5.39,2.25,7.99c3.25-1.95,6.15-3.3,9.75-4.5C316.88,333.88,310.64,329.75,304.05,328.66z M326.69,221.02
		c-0.61,1.86,0,3.95,0.31,5.81c0.32,1.88,0.44,4.09,1.3,5.83c0.92,1.85,2.73,1.73,4.52,2.44c2.2,0.87,4.05,2.29,6.11,3.44
		c-0.5-2.07-2-3.87-2.84-5.83c-0.87-2.02-1.52-4.13-1.82-6.31c-0.25-1.83,0.08-2.72-1.57-3.63
		C330.94,221.79,328.64,221.27,326.69,221.02z M196.59,328.64c-5.33,0.42-13.2,4.87-15.44,9.95c3.29,1.48,6.31,3.41,9.03,5.78
		C190.67,338.61,193.27,333.29,196.59,328.64z M339.84,351.75c0.89,1.03,6.84-8.09,7.37-8.81c2.07-2.82,4.3-4.8,7.17-6.73
		c2.26-1.51,2.27-5.8,2.07-8.33c-3.81,3.37-8.37,6.83-11.58,10.79c-1.28,1.58-1.81,3.54-2.46,5.43
		C341.57,346.55,340.21,349.18,339.84,351.75z M89.21,204.21c1.34-0.02,3.13-2.87,4.02-3.72c1.67-1.59,3.47-3.03,5.41-4.28
		c0.57-0.37,2.13-1.71,2.8-1.63c0.9,0.11,0.61,0.32,0.68,1.29c0.18,2.49-0.09,5.01-0.25,7.49c1.65-2.04,2.23-5.87,2.87-8.33
		c0.87-3.32,1.58-6.85,1.16-10.3C98.96,189.88,93.58,196.82,89.21,204.21z M182.81,158.53c6.2,1.02,11.66-4.35,15.58-8.47
		c-3.54-0.86-8.3-1.18-11.75,0.33C184.11,151.49,183.61,156.1,182.81,158.53z M145.94,181.73c-0.72,1.21-0.54,4.13-1.88,4.76
		c-1.28,0.6-2.95-1.05-4.13-1.3c-1.7-0.36-3.38,0.45-4.42,1.81c-0.63,0.84-1.77,3.5-0.57,4.26c0.72,0.46,3.15-0.66,4.1-0.76
		c2.25-0.24,3.9,0.62,5.94,0.86c0.8,0.09,0.39,0.33,0.94,0.05c0.47-0.24,1.1-2.2,1.33-2.63c1.09-2.08,2.19-4.15,3.27-6.23
		C149,182.27,147.47,182,145.94,181.73z M317.77,158.59c-1.1-3.14-1.54-7.74-5.21-8.64c-3.32-0.81-6.93-0.16-10.21,0.54
		c2.25,2.11,4.49,4.39,7.08,6.1C311.94,158.25,314.81,158.59,317.77,158.59z M274.4,338.26c-3.8-0.24-7.46,3.04-9.36,6
		c-1.23,1.92-2.35,3.9-3.62,5.79c-1.26,1.88-3.14,3.64-4.1,5.68c3.98-0.79,7.15-4,9.87-6.8
		C270.16,345.87,273.18,342.44,274.4,338.26z M365.65,191.3c0.82-2.18-0.5-4.67-2.46-5.77c-2.35-1.32-3.61,0.91-5.81,0.96
		c-1.97,0.05-1.61-2.07-2.28-3.39c-0.99-1.96-3.08-0.49-4.9-0.04c0.97,1.85,1.95,3.71,2.93,5.56c0.35,0.67,0.94,2.58,1.69,2.82
		c0.48,0.15,1.34-0.46,1.84-0.6c0.97-0.28,1.97-0.38,2.97-0.38C361.66,190.47,363.66,190.98,365.65,191.3z M398.28,199.88
		c0.08-1.84-0.11-3.69,0.22-5.51c2.77,1.39,5.34,3.1,7.65,5.17c0.57,0.51,3.31,4.06,4.17,3.31c-4.04-6.76-9.03-13.04-15.24-17.94
		c-0.17,2.91,0.38,5.81,0.97,8.65C396.48,195.68,396.81,198.18,398.28,199.88z M334.5,139.88c-1.6,2.32-0.4,4.44,0.87,6.52
		c0.44,0.73,1.28,2.98,2.07,3.24c0.6,0.19,2.72-1.47,3.28-1.76c2.35-1.22,4.84-1.95,7.34-2.78
		C344.59,142.49,338.87,139.99,334.5,139.88z M334.94,161.51c3.52-0.09,6.39-2.45,8.25-5.27c0.53-0.81,2.82-4.05,2.09-5.17
		c-0.63-0.96-2.45-0.3-3.25-0.03c-2.95,0.99-5.63,3.14-7.45,5.64C333.52,158.15,331.71,161.49,334.94,161.51z M166.14,161.51
		c3.66-0.48,0.65-4.44-0.72-6.01c-1.74-1.99-5.51-5.32-8.46-4.9c-3.04,0.43,0.33,5.05,1.36,6.41
		C160.2,159.49,162.93,161.42,166.14,161.51z M163.31,149.11c1.09-1.68,6.39-8.49,1.67-8.97c-3.95-0.4-9.25,2.23-12.26,4.54
		C156.27,146.1,159.8,147.57,163.31,149.11z M231.51,89.36c0.65-1.51,0.54-3.57,0.68-5.18c0.15-1.76,0.38-3.58,0.27-5.35
		c-0.21-3.5-2.57-5.55-5.79-6.62c-1.57-0.52-2.17-0.73-1.97,0.98c0.21,1.73,1.1,3.68,1.71,5.31
		C227.78,82.15,229.21,86.17,231.51,89.36z M150.87,179.44c4.54-0.68,0.53-4.76-1.38-6.44c-1.44-1.26-6.92-5.21-9.03-3.74
		c-1.5,1.05,0.92,4.08,1.64,5C144.17,176.92,147.36,179.41,150.87,179.44z M350.11,179.44c3.37-0.12,6.43-2.34,8.51-4.85
		c0.77-0.93,3.38-4.01,2.09-5.24c-1.91-1.81-7.69,2.32-9.08,3.49C349.61,174.55,345.71,178.56,350.11,179.44z M226.62,53.08
		c-0.66,4.56-1.53,9.08-2.57,13.57c4.74-0.72,11.39-7.01,9.34-12.25C230.5,55.98,228.84,55.21,226.62,53.08z M267.04,54.34
		c-1.39,5.24,4,12.1,9.36,12.2c-1.08-4.5-2.33-9.01-2.43-13.67C271.78,55.17,269.93,56.06,267.04,54.34z M167.96,154.29
		c0.78,1.15,1.55,2.3,2.33,3.45c2.71-2.56,6.85-5.46,8.4-8.94c1.03-2.29,1.68-6.05-0.73-7.72c-1.34-0.93-2.9-1.16-3.09,0.62
		c-0.07,0.68,0.34,1.79,0.34,2.52c0,1.25-0.27,2.49-0.44,3.72c-0.23,1.67-0.17,2.37-1.62,3.16
		C171.25,152.13,169.49,152.6,167.96,154.29z M250.09,397.32c-1.47,3.06-2.9,7.74-2.93,11.16c-0.02,1.91,0.23,5.58,2.48,6.27
		c2.95,0.9,3.6-3.57,3.63-5.48C253.34,405.21,251.36,401.08,250.09,397.32z M309.33,142.13c-2.88-1.35-6.29-1.82-9.41-1.1
		c-2.51,0.58-3.33,2.99-2.18,5.38C300.63,152.44,307.7,145.35,309.33,142.13z M153.61,331.93c-0.29-1.92-1.59-3.92-2.38-5.69
		c-0.9-2.03-1.82-4.06-2.75-6.09c-0.91-1.99-1.84-3.97-2.77-5.95c-0.69-1.46-1.2-3.42-2.33-4.6c-0.33,4.42-0.91,8.6,1.63,12.51
		C147.33,325.69,150.08,329.46,153.61,331.93z M191.07,142.23c1.58,2.42,2.89,4.19,5.77,5.03c1.88,0.55,4.66,1.43,5.86-0.75
		c0.45-0.82,0.49-2.32,0.29-3.24c-0.29-1.29-1.11-1.8-2.56-2.22C197.51,140.2,193.63,140.58,191.07,142.23z M242.76,354.25
		c-4.38-6-8.39-14.68-16.46-15.96C230.12,345.04,235.46,351.19,242.76,354.25z M325.42,140.06c-3.7,0.25-4.99,3.7-4.32,6.93
		c0.9,4.34,5.61,7.62,8.73,10.36c0.85-1.26,2.17-2.03,1.22-3.46c-0.8-1.21-3.02-1.52-4.04-2.54c-1.35-1.34-0.85-3.44-1.4-5.2
		C324.95,144.04,324.16,142.17,325.42,140.06z M269.16,88.64c2.07,0.48,6.63-15.54,6.84-16.4c-2.62-0.02-6.19,1.41-7.14,4.06
		c-0.58,1.61-0.1,3.5,0.02,5.15C269.05,83.84,269.07,86.25,269.16,88.64z M354.15,290.46c-0.87,5.13-1.76,10.26-2.63,15.39
		c-0.12,0.68-2.34,10.33-1.82,10.63c0.68,0.36,4.79-10.31,5.17-11.39C356.59,300.08,355.27,295.45,354.15,290.46z M346.14,332.08
		c0.97,0.71,5.83-5.43,6.39-6.15c1.4-1.82,2.94-3.78,3.94-5.86c1.29-2.67,1.03-5.65,0.52-8.48
		C353.36,318.42,349.75,325.25,346.14,332.08z M151.65,318.13c0.98-0.39-5.58-24.89-5.77-25.7c-1.08,4.64-1.72,8.95,0.05,13.51
		C147.55,310.11,149.44,314.23,151.65,318.13z M272.21,47.85c2.11-0.7-1.11-7.61-2.73-7.73c-1.32-0.1-3.2,2.85-3.76,3.76
		c-1.16,1.89-2.13,4.46-1.26,6.66C266.7,48.58,269.06,45.74,272.21,47.85z M259.87,41.64c2.1-5.59,1.36-12.23-2.46-16.79
		C255.7,30.55,256.86,36.59,259.87,41.64z M230.78,40.05c-1.36,0.9-3.71,5.24-3.22,6.86c0.47,1.57,1.34,0.42,2.5,0.16
		c2.6-0.58,4.17,2.11,5.99,3.44C237.16,47.32,234.27,40.92,230.78,40.05z M240.44,41.48c3.06-4.86,4.3-10.76,2.66-16.35
		c-1.8,2.05-3.35,4.42-3.47,7.21C239.5,35.35,240.01,38.51,240.44,41.48z M223.12,392.49c0.68-0.54,0.23-4.36,0.44-5.24
		c0.36-1.5,1-3.61,2.59-4.22c1.94-0.74,4.86,0.47,6.47,1.52c0.25,0.16,2.3,1.95,2.47,1.65c0.43-0.8-2.43-3.59-2.91-4.02
		c-1.85-1.69-4.78-3.4-7.32-2.22C220.44,382,221.8,388.94,223.12,392.49z M163.65,164.4c-1.98-0.72-4.17-2.52-5.07,0.05
		c-0.34,0.98,0.13,3.65-0.37,4.22c-0.31,0.36-1.7,0.34-2.14,0.45c-1.01,0.25-2.12,0.55-2.82,1.39c-1.42,1.68,0.82,3.18,1.92,4.57
		C157.99,171.52,160.82,167.96,163.65,164.4z M347.85,171.45c-1.17-2.13-3.67-2.45-5.84-2.7c0.28-1.24,0.67-4.73-0.71-5.56
		c-1.03-0.62-3.36,0.87-4.43,1.32c2.83,3.56,5.66,7.12,8.48,10.68C346.18,173.94,347.01,172.7,347.85,171.45z M277.31,390.57
		c1.33-0.72,1-4.9,0.85-6.08c-0.28-2.14-1.11-4.22-3.42-4.74c-2.38-0.53-4.84,0.95-6.54,2.47c-1.03,0.92-3.15,2.77-2.83,4.34
		c2.1-1.88,6.68-5.2,9.62-3.17C276.98,384.78,277.19,388.4,277.31,390.57z M384.67,164.09c1.15,4.27,2.51,8.44,6.03,11.77
		C390.51,170.81,388.45,167.01,384.67,164.09z M116.08,164.27c-3.96,2.52-5.37,6.33-5.87,10.64
		C112.88,171.8,115.62,168.73,116.08,164.27z M236.28,34.03c-1.37,1.27-2.74,2.53-4.1,3.8c0.83,0.66,4.21,4.45,5.04,3.62
		C237.94,40.73,236.4,34.99,236.28,34.03z M264.29,34.13c-0.57,2.22-1.42,5.56-0.82,7.84c1.62-1.36,3.21-2.75,4.78-4.16
		C266.93,36.58,265.6,35.36,264.29,34.13z M228.89,51.34c0.35,0.82,0.7,1.64,1.05,2.46c0.94-0.74,1.31-1.89,1.3-3.05
		C230.45,50.95,229.67,51.15,228.89,51.34z M269.28,50.76c-0.12,1.12,0.23,2.22,1.12,2.95C271.98,51.63,271.39,51.3,269.28,50.76z"
		/>
</g>
</svg>
