<?xml version="1.0" encoding="utf-8"?>
<!-- Svg Vector Icons : http://www.onlinewebfonts.com/icon -->
<!DOCTYPE svg PUBLIC "-//W3C//DTD SVG 1.1//EN" "http://www.w3.org/Graphics/SVG/1.1/DTD/svg11.dtd">
<svg version="1.1" xmlns="http://www.w3.org/2000/svg" xmlns:xlink="http://www.w3.org/1999/xlink" x="0px" y="0px" viewBox="0 0 1000 1000" enable-background="new 0 0 1000 1000" xml:space="preserve">
<metadata> Svg Vector Icons : http://www.onlinewebfonts.com/icon </metadata>
<g><path d="M688.1,398.3c-10.2,0-18.4,8.2-18.4,18.4v321.6c0,30.4-24.7,55.1-55.1,55.1H394.1c-30.4,0-55.1-24.7-55.1-55.1V416.6c0-10.2-8.2-18.4-18.4-18.4c-10.1,0-18.4,8.2-18.4,18.4v321.6c0,50.7,41.2,91.9,91.9,91.9h220.5c50.7,0,91.9-41.2,91.9-91.9V416.6C706.5,406.5,698.2,398.3,688.1,398.3z"/><path d="M430.8,738.1v-257c0-10.2-8.2-18.4-18.4-18.4c-10.1,0-18.4,8.2-18.4,18.4v257c0,10.1,8.2,18.4,18.4,18.4C422.6,756.5,430.8,748.2,430.8,738.1z"/><path d="M522.7,738.1v-257c0-10.2-8.2-18.4-18.4-18.4c-10.2,0-18.4,8.2-18.4,18.4v257c0,10.1,8.2,18.4,18.4,18.4C514.5,756.5,522.7,748.2,522.7,738.1z"/><path d="M614.6,738.1v-257c0-10.2-8.2-18.4-18.4-18.4c-10.2,0-18.4,8.2-18.4,18.4v257c0,10.1,8.2,18.4,18.4,18.4C606.4,756.5,614.6,748.2,614.6,738.1z"/><path d="M702.1,244.1h-147v-19.1c0-30.4-24.7-55.1-55.1-55.1s-55.1,24.7-55.1,55.1v19.1h-147c-30.4,0-55.1,24.7-55.1,55.1V336c0,10.1,8.2,18.4,18.4,18.4h477.7c10.2,0,18.4-8.2,18.4-18.4v-36.8C757.2,268.9,732.5,244.1,702.1,244.1z M481.6,225.1c0-10.1,8.2-18.4,18.4-18.4c10.1,0,18.4,8.3,18.4,18.4v19.1h-36.7L481.6,225.1L481.6,225.1z M720.5,317.6h-441v-18.4c0-10.1,8.2-18.4,18.4-18.4h404.2c10.1,0,18.4,8.2,18.4,18.4L720.5,317.6L720.5,317.6z"/><path d="M500,10C229.4,10,10,229.4,10,500c0,270.6,219.4,490,490,490c270.6,0,490-219.4,490-490C990,229.4,770.6,10,500,10z M500,947.3C253,947.3,52.7,747,52.7,500S253,52.7,500,52.7C747,52.7,947.3,253,947.3,500S747,947.3,500,947.3z"/></g>
</svg>